<?xml version="1.0" encoding="UTF-8"?>
<svg id="Layer_1" data-name="Layer 1" xmlns="http://www.w3.org/2000/svg" viewBox="0 0 360 384">
  <defs>
    <style>
      .cls-1 {
        fill: #545454;
      }

      .cls-2 {
        fill: #878787;
      }
    </style>
  </defs>
  <circle class="cls-2" cx="180" cy="192" r="176.65"/>
  <path class="cls-1" d="M356.65,192c0-97.56-79.09-176.65-176.65-176.65S3.35,94.44,3.35,192c0,23.27,4.51,45.48,12.68,65.83,12.62-19.94,30.54-36.42,50.21-49.29,8.41-5.52,17.16-10.53,26.4-14.68,4.48-1.74,6.81-3.99,10.09-7.49,1.32-1.42,3.28-4.55,4.2-6.26,2.1-4.08,1.64-8.93,1.68-13.37-.57-17.17.83-34.43,1.72-51.59.33-2.3-.52-5.96,1.03-7.67.59-.32,1.59.23,2.84,1.11,4.2,2.88,8.33,6.02,12.44,8.71,7.21,5.07,90.74,64.91,98.34,69.71,2.17,1.6,7.47,5.59,7.47,5.59l-21.2,21.16,9.51,15.83s.02,83.72.02,134.31c1.62-.38,3.23-.79,4.84-1.22-.02-50.87.14-134.47.14-134.47l-8.24-13.71s8.73-8.94,12.24-12.73c2.24-2.02,6.95-6.42,6.95-6.42,0,0,2.72,1.87,3.69,2.53,3.37,2.41,6.67,4.76,10.08,7.06,3.3,2.43,6.33,4.63,9.36,6.79,1.42,1.08,3.62,2.68,3.62,2.68,0,0-3.84,7.34-5.16,10.06-1.2,2.44-1.55,3.98.37,5.89,1.87,1.79,4.65,4.71,6.32,6.85,8.06,9.8,15.27,21.3,20.63,33.06,2.55,6.21,8.52,20.69,11.78,43.36,0,0,.05.22.06.3.35,3.14.6,6.2.78,9.31,35.86-32.33,58.41-79.15,58.41-131.23ZM253.02,199.38c-.32,1.16-.93,2.96-.93,2.96,0,0-1.53-1.39-2.51-2.18-4.01-3.24-8.86-6.63-13.15-9.51-21.43-15.65-42.87-30.77-64.34-46.38-7.41-4.98-13.88-10-21.19-15.31-1.53-1.11-6.03-4.09-6.03-4.09,0,0,10.04-12.48,13.72-13.39,8.23,6.04,17.96,12.97,26.42,18.17,2.69,2.84,1.53,10.85,6.6,13.5,7.33,3.84,13.09.52,17.62.87,4.59,2.27,11.28,6.26,14.88,7.91,3.35,1.91,1.54,9.25,8.51,12.31,8.72,3.82,12.23-.39,17.05.26,4,1.89,9.88,4.36,12.41,5.28-1.07,5.89-7.15,22.84-9.07,29.59ZM294.67,175.1c-3-.2-5.85-1.36-8.77-2.06-17.08-3.04-34.12-11.65-49.43-18.95-34.68-17.4-68.87-37.52-97.44-63.85-2.6-2.67-5.02-5.14-7.09-8.28-4.35-6.41-.85-11.86,6.79-10.21,5.68,1.3,11.69,2.52,17.51,4.05,5.4.95,9.82,5.23,15.23,4.79,3.02-.58,5-3.06,7.47-4.84,4.58-3.34,9.35-6.91,13.68-10.68,9.81-7.26,18.97-15.2,29.22-21.83,5.91-3.32,13.42-2.06,18.33,2.22,3.36,3.07,5.24,7.25,8.12,10.77,5.94,8.96,17.94,7.18,27.04,9.25,15.39,3.62,15.88,16.97,11.04,29.46-2.98,10.49-6.88,20.79-9.55,31.45-.99,3.96-3.52,7.88-3.34,12.01.15,1.48,1.03,2.76,2.14,3.77,2.38,2.15,5.32,4.49,8.1,6.85,4.88,4.19,9.17,7.48,12.72,12.1l.17.22c4.45,5.17,7.97,13.45-1.95,13.76Z"/>
</svg>