<?xml version="1.0" encoding="UTF-8"?>
<svg id="Layer_1" data-name="Layer 1" xmlns="http://www.w3.org/2000/svg" viewBox="0 0 2000 511.35">
  <defs>
    <style>
      .cls-1 {
        stroke-width: .97px;
      }

      .cls-1, .cls-2 {
        fill: #231f20;
        stroke: #231f20;
        stroke-miterlimit: 10;
      }
    </style>
  </defs>
  <g>
    <path class="cls-2" d="M97.6,448.97c-.57,0-1.14-.28-1.14-1.14s.57-1.14,1.14-1.14h48.56c.57,0,1.14.28,1.14,1.14s-.57,1.14-1.14,1.14h-48.56ZM101.86,379.96c3.69,0,8.24,1.14,11.93,1.14h38.06c.57,0,1.14.28,1.14,1.14s-.57,1.14-1.14,1.14h-38.06c-3.69,0-8.24,1.14-11.93,1.14-2.27,0-3.98-.85-3.98-2.27s1.7-2.27,3.98-2.27ZM102.14,389.33c3.69,0,8.24,1.14,11.93,1.14h56.23c.57,0,1.14.28,1.14,1.14s-.57,1.14-1.14,1.14h-56.23c-3.69,0-8.24,1.14-11.93,1.14-2.27,0-3.98-.85-3.98-2.27s1.7-2.27,3.98-2.27ZM150.71,371.72c.57,0,1.14.28,1.14,1.14s-.57,1.14-1.14,1.14h-35.5c-3.69,0-8.24,1.14-11.93,1.14-2.27,0-3.98-.85-3.98-2.27s1.7-2.27,3.98-2.27c3.69,0,8.24,1.14,11.93,1.14h35.5ZM104.41,398.7c3.69,0,8.24,1.14,11.93,1.14h99.4c.57,0,1.14.28,1.14,1.14s-.57,1.14-1.14,1.14h-99.4c-3.69,0-8.24,1.14-11.93,1.14-2.27,0-3.98-.85-3.98-2.27s1.7-2.27,3.98-2.27ZM153.26,456.07c.57,0,1.14.28,1.14,1.14s-.57,1.14-1.14,1.14h-36.92c-3.69,0-8.24,1.14-11.93,1.14-2.27,0-3.98-.85-3.98-2.27s1.7-2.27,3.98-2.27c3.69,0,8.24,1.14,11.93,1.14h36.92ZM233.63,362.35c.57,0,1.14.28,1.14,1.14s-.57,1.14-1.14,1.14h-114.17c-3.69,0-8.24,1.14-11.93,1.14-2.27,0-3.98-.85-3.98-2.27s1.7-2.27,3.98-2.27c3.69,0,8.24,1.14,11.93,1.14h114.17ZM110.66,408.08c3.69,0,8.24,1.14,11.93,1.14h108.49c.57,0,1.14.28,1.14,1.14s-.57,1.14-1.14,1.14h-108.49c-3.69,0-8.24,1.14-11.93,1.14-2.27,0-3.98-.85-3.98-2.27s1.7-2.27,3.98-2.27ZM227.95,465.44c.57,0,1.14.28,1.14,1.14s-.57,1.14-1.14,1.14h-104.51c-3.69,0-8.24,1.14-11.93,1.14-2.27,0-3.98-.85-3.98-2.27s1.7-2.27,3.98-2.27c3.69,0,8.24,1.14,11.93,1.14h104.51ZM226.82,352.98c.57,0,1.14.28,1.14,1.14s-.57,1.14-1.14,1.14h-99.4c-3.69,0-8.24,1.14-11.93,1.14-2.27,0-3.98-.85-3.98-2.27s1.7-2.27,3.98-2.27c3.69,0,8.24,1.14,11.93,1.14h99.4ZM124.58,417.45c3.69,0,8.24,1.14,11.93,1.14h101.1c.57,0,1.14.28,1.14,1.14s-.57,1.14-1.14,1.14h-101.1c-3.69,0-8.24,1.14-11.93,1.14-2.27,0-3.98-.85-3.98-2.27s1.7-2.27,3.98-2.27ZM137.64,477.09c-3.69,0-8.24,1.14-11.93,1.14-2.27,0-3.98-.85-3.98-2.27s1.7-2.27,3.98-2.27c3.69,0,8.24,1.14,11.93,1.14h74.98c.57,0,1.14.28,1.14,1.14s-.57,1.14-1.14,1.14h-74.98ZM213.19,343.61c.57,0,1.14.28,1.14,1.14s-.57,1.14-1.14,1.14h-69.86c-3.69,0-8.24,1.14-11.93,1.14-2.27,0-3.98-.85-3.98-2.27s1.7-2.27,3.98-2.27c3.69,0,8.24,1.14,11.93,1.14h69.86ZM178.82,483.62c.57,0,1.14.28,1.14,1.14s-.57,1.14-1.14,1.14h-23.86c-.57,0-1.14-.28-1.14-1.14s.57-1.14,1.14-1.14h23.86ZM159.51,337.08c-.57,0-1.14-.28-1.14-1.14s.57-1.14,1.14-1.14h23.86c.57,0,1.14.28,1.14,1.14s-.57,1.14-1.14,1.14h-23.86ZM167.46,426.82c3.69,0,8.24,1.14,11.93,1.14h61.06c.57,0,1.14.28,1.14,1.14s-.57,1.14-1.14,1.14h-61.06c-3.69,0-8.24,1.14-11.93,1.14-2.27,0-3.98-.85-3.98-2.27s1.7-2.27,3.98-2.27ZM235.62,456.07c.57,0,1.14.28,1.14,1.14s-.57,1.14-1.14,1.14h-36.64c-3.69,0-8.24,1.14-11.93,1.14-2.27,0-3.98-.85-3.98-2.27s1.7-2.27,3.98-2.27c3.69,0,8.24,1.14,11.93,1.14h36.64ZM237.04,371.72c.57,0,1.14.28,1.14,1.14s-.57,1.14-1.14,1.14h-49.13c-.57,0-1.14-.28-1.14-1.14s.57-1.14,1.14-1.14h49.13ZM191.32,436.19c3.69,0,8.24,1.14,11.93,1.14h37.77c.57,0,1.14.28,1.14,1.14s-.57,1.14-1.14,1.14h-37.77c-3.69,0-8.24,1.14-11.93,1.14-2.27,0-3.98-.85-3.98-2.27s1.7-2.27,3.98-2.27ZM239.6,446.7c.57,0,1.14.28,1.14,1.14s-.57,1.14-1.14,1.14h-35.22c-3.69,0-8.24,1.14-11.93,1.14-2.27,0-3.98-.85-3.98-2.27s1.7-2.27,3.98-2.27c3.69,0,8.24,1.14,11.93,1.14h35.22Z"/>
    <path class="cls-2" d="M265.15,342.47c3.69,0,8.24,1.14,11.93,1.14h110.47c.57,0,1.14.28,1.14,1.14s-.57,1.14-1.14,1.14h-110.47c-3.69,0-8.24,1.14-11.93,1.14-2.27,0-3.98-.85-3.98-2.27s1.7-2.27,3.98-2.27ZM265.15,351.84c3.69,0,8.24,1.14,11.93,1.14h110.47c.57,0,1.14.28,1.14,1.14s-.57,1.14-1.14,1.14h-110.47c-3.69,0-8.24,1.14-11.93,1.14-2.27,0-3.98-.85-3.98-2.27s1.7-2.27,3.98-2.27ZM265.15,361.22c3.69,0,8.24,1.14,11.93,1.14h110.47c.57,0,1.14.28,1.14,1.14s-.57,1.14-1.14,1.14h-110.47c-3.69,0-8.24,1.14-11.93,1.14-2.27,0-3.98-.85-3.98-2.27s1.7-2.27,3.98-2.27ZM265.15,370.59c3.69,0,8.24,1.14,11.93,1.14h110.47c.57,0,1.14.28,1.14,1.14s-.57,1.14-1.14,1.14h-110.47c-3.69,0-8.24,1.14-11.93,1.14-2.27,0-3.98-.85-3.98-2.27s1.7-2.27,3.98-2.27ZM387.55,381.1c.57,0,1.14.28,1.14,1.14s-.57,1.14-1.14,1.14h-125.24c-.57,0-1.14-.28-1.14-1.14s.57-1.14,1.14-1.14h125.24ZM302.36,389.33c3.69,0,8.24,1.14,11.93,1.14h36.07c.57,0,1.14.28,1.14,1.14s-.57,1.14-1.14,1.14h-36.07c-3.69,0-8.24,1.14-11.93,1.14-2.27,0-3.98-.85-3.98-2.27s1.7-2.27,3.98-2.27ZM302.36,398.7c3.69,0,8.24,1.14,11.93,1.14h36.07c.57,0,1.14.28,1.14,1.14s-.57,1.14-1.14,1.14h-36.07c-3.69,0-8.24,1.14-11.93,1.14-2.27,0-3.98-.85-3.98-2.27s1.7-2.27,3.98-2.27ZM302.36,408.08c3.69,0,8.24,1.14,11.93,1.14h36.07c.57,0,1.14.28,1.14,1.14s-.57,1.14-1.14,1.14h-36.07c-3.69,0-8.24,1.14-11.93,1.14-2.27,0-3.98-.85-3.98-2.27s1.7-2.27,3.98-2.27ZM302.36,417.45c3.69,0,8.24,1.14,11.93,1.14h36.07c.57,0,1.14.28,1.14,1.14s-.57,1.14-1.14,1.14h-36.07c-3.69,0-8.24,1.14-11.93,1.14-2.27,0-3.98-.85-3.98-2.27s1.7-2.27,3.98-2.27ZM302.36,426.82c3.69,0,8.24,1.14,11.93,1.14h36.07c.57,0,1.14.28,1.14,1.14s-.57,1.14-1.14,1.14h-36.07c-3.69,0-8.24,1.14-11.93,1.14-2.27,0-3.98-.85-3.98-2.27s1.7-2.27,3.98-2.27ZM302.36,436.19c3.69,0,8.24,1.14,11.93,1.14h36.07c.57,0,1.14.28,1.14,1.14s-.57,1.14-1.14,1.14h-36.07c-3.69,0-8.24,1.14-11.93,1.14-2.27,0-3.98-.85-3.98-2.27s1.7-2.27,3.98-2.27ZM302.36,445.56c3.69,0,8.24,1.14,11.93,1.14h36.07c.57,0,1.14.28,1.14,1.14s-.57,1.14-1.14,1.14h-36.07c-3.69,0-8.24,1.14-11.93,1.14-2.27,0-3.98-.85-3.98-2.27s1.7-2.27,3.98-2.27ZM302.36,454.94c3.69,0,8.24,1.14,11.93,1.14h36.07c.57,0,1.14.28,1.14,1.14s-.57,1.14-1.14,1.14h-36.07c-3.69,0-8.24,1.14-11.93,1.14-2.27,0-3.98-.85-3.98-2.27s1.7-2.27,3.98-2.27ZM302.36,464.31c3.69,0,8.24,1.14,11.93,1.14h36.07c.57,0,1.14.28,1.14,1.14s-.57,1.14-1.14,1.14h-36.07c-3.69,0-8.24,1.14-11.93,1.14-2.27,0-3.98-.85-3.98-2.27s1.7-2.27,3.98-2.27ZM302.36,473.68c3.69,0,8.24,1.14,11.93,1.14h36.07c.57,0,1.14.28,1.14,1.14s-.57,1.14-1.14,1.14h-36.07c-3.69,0-8.24,1.14-11.93,1.14-2.27,0-3.98-.85-3.98-2.27s1.7-2.27,3.98-2.27Z"/>
    <path class="cls-2" d="M419.36,342.47c3.69,0,8.24,1.14,11.93,1.14h89.74c.57,0,1.14.28,1.14,1.14s-.57,1.14-1.14,1.14h-89.74c-3.69,0-8.24,1.14-11.93,1.14-2.27,0-3.98-.85-3.98-2.27s1.7-2.27,3.98-2.27ZM419.36,351.84c3.69,0,8.24,1.14,11.93,1.14h107.35c.57,0,1.14.28,1.14,1.14s-.57,1.14-1.14,1.14h-107.35c-3.69,0-8.24,1.14-11.93,1.14-2.27,0-3.98-.85-3.98-2.27s1.7-2.27,3.98-2.27ZM419.36,361.22c3.69,0,8.24,1.14,11.93,1.14h115.87c.57,0,1.14.28,1.14,1.14s-.57,1.14-1.14,1.14h-115.87c-3.69,0-8.24,1.14-11.93,1.14-2.27,0-3.98-.85-3.98-2.27s1.7-2.27,3.98-2.27ZM419.36,370.59c3.69,0,8.24,1.14,11.93,1.14h120.42c.57,0,1.14.28,1.14,1.14s-.57,1.14-1.14,1.14h-120.42c-3.69,0-8.24,1.14-11.93,1.14-2.27,0-3.98-.85-3.98-2.27s1.7-2.27,3.98-2.27ZM419.36,379.96c3.69,0,8.24,1.14,11.93,1.14h35.22c.57,0,1.14.28,1.14,1.14s-.57,1.14-1.14,1.14h-35.22c-3.69,0-8.24,1.14-11.93,1.14-2.27,0-3.98-.85-3.98-2.27s1.7-2.27,3.98-2.27ZM419.36,389.33c3.69,0,8.24,1.14,11.93,1.14h35.22c.57,0,1.14.28,1.14,1.14s-.57,1.14-1.14,1.14h-35.22c-3.69,0-8.24,1.14-11.93,1.14-2.27,0-3.98-.85-3.98-2.27s1.7-2.27,3.98-2.27ZM419.36,398.7c3.69,0,8.24,1.14,11.93,1.14h35.22c.57,0,1.14.28,1.14,1.14s-.57,1.14-1.14,1.14h-35.22c-3.69,0-8.24,1.14-11.93,1.14-2.27,0-3.98-.85-3.98-2.27s1.7-2.27,3.98-2.27ZM419.36,408.08c3.69,0,8.24,1.14,11.93,1.14h35.22c.57,0,1.14.28,1.14,1.14s-.57,1.14-1.14,1.14h-35.22c-3.69,0-8.24,1.14-11.93,1.14-2.27,0-3.98-.85-3.98-2.27s1.7-2.27,3.98-2.27ZM419.36,417.45c3.69,0,8.24,1.14,11.93,1.14h118.43c.57,0,1.14.28,1.14,1.14s-.57,1.14-1.14,1.14h-118.43c-3.69,0-8.24,1.14-11.93,1.14-2.27,0-3.98-.85-3.98-2.27s1.7-2.27,3.98-2.27ZM419.36,426.82c3.69,0,8.24,1.14,11.93,1.14h111.33c.57,0,1.14.28,1.14,1.14s-.57,1.14-1.14,1.14h-111.33c-3.69,0-8.24,1.14-11.93,1.14-2.27,0-3.98-.85-3.98-2.27s1.7-2.27,3.98-2.27ZM419.36,436.19c3.69,0,8.24,1.14,11.93,1.14h103.09c.57,0,1.14.28,1.14,1.14s-.57,1.14-1.14,1.14h-103.09c-3.69,0-8.24,1.14-11.93,1.14-2.27,0-3.98-.85-3.98-2.27s1.7-2.27,3.98-2.27ZM419.36,445.56c3.69,0,8.24,1.14,11.93,1.14h107.63c.57,0,1.14.28,1.14,1.14s-.57,1.14-1.14,1.14h-107.63c-3.69,0-8.24,1.14-11.93,1.14-2.27,0-3.98-.85-3.98-2.27s1.7-2.27,3.98-2.27ZM419.36,454.94c3.69,0,8.24,1.14,11.93,1.14h35.22c.57,0,1.14.28,1.14,1.14s-.57,1.14-1.14,1.14h-35.22c-3.69,0-8.24,1.14-11.93,1.14-2.27,0-3.98-.85-3.98-2.27s1.7-2.27,3.98-2.27ZM419.36,464.31c3.69,0,8.24,1.14,11.93,1.14h35.22c.57,0,1.14.28,1.14,1.14s-.57,1.14-1.14,1.14h-35.22c-3.69,0-8.24,1.14-11.93,1.14-2.27,0-3.98-.85-3.98-2.27s1.7-2.27,3.98-2.27ZM419.36,473.68c3.69,0,8.24,1.14,11.93,1.14h35.22c.57,0,1.14.28,1.14,1.14s-.57,1.14-1.14,1.14h-35.22c-3.69,0-8.24,1.14-11.93,1.14-2.27,0-3.98-.85-3.98-2.27s1.7-2.27,3.98-2.27ZM495.19,454.94c3.69,0,8.24,1.14,11.93,1.14h36.07c.57,0,1.14.28,1.14,1.14s-.57,1.14-1.14,1.14h-36.07c-3.69,0-8.24,1.14-11.93,1.14-2.27,0-3.98-.85-3.98-2.27s1.7-2.27,3.98-2.27ZM498.31,464.31c3.69,0,8.24,1.14,11.93,1.14h37.2c.57,0,1.14.28,1.14,1.14s-.57,1.14-1.14,1.14h-37.2c-3.69,0-8.24,1.14-11.93,1.14-2.27,0-3.98-.85-3.98-2.27s1.7-2.27,3.98-2.27ZM501.72,408.08c3.69,0,8.24,1.14,11.93,1.14h39.76c.57,0,1.14.28,1.14,1.14s-.57,1.14-1.14,1.14h-39.76c-3.69,0-8.24,1.14-11.93,1.14-2.27,0-3.98-.85-3.98-2.27s1.7-2.27,3.98-2.27ZM501.72,473.68c3.69,0,8.24,1.14,11.93,1.14h38.06c.57,0,1.14.28,1.14,1.14s-.57,1.14-1.14,1.14h-38.06c-3.69,0-8.24,1.14-11.93,1.14-2.27,0-3.98-.85-3.98-2.27s1.7-2.27,3.98-2.27ZM505.13,379.96c3.69,0,8.24,1.14,11.93,1.14h37.2c.57,0,1.14.28,1.14,1.14s-.57,1.14-1.14,1.14h-37.2c-3.69,0-8.24,1.14-11.93,1.14-2.27,0-3.98-.85-3.98-2.27s1.7-2.27,3.98-2.27ZM507.12,398.7c3.69,0,8.24,1.14,11.93,1.14h35.78c.57,0,1.14.28,1.14,1.14s-.57,1.14-1.14,1.14h-35.78c-3.69,0-8.24,1.14-11.93,1.14-2.27,0-3.98-.85-3.98-2.27s1.7-2.27,3.98-2.27ZM507.69,389.33c3.69,0,8.24,1.14,11.93,1.14h35.5c.57,0,1.14.28,1.14,1.14s-.57,1.14-1.14,1.14h-35.5c-3.69,0-8.24,1.14-11.93,1.14-2.27,0-3.98-.85-3.98-2.27s1.7-2.27,3.98-2.27Z"/>
    <path class="cls-2" d="M589.48,342.47c3.69,0,8.24,1.14,11.93,1.14h98.55c.57,0,1.14.28,1.14,1.14s-.57,1.14-1.14,1.14h-98.55c-3.69,0-8.24,1.14-11.93,1.14-2.27,0-3.98-.85-3.98-2.27s1.7-2.27,3.98-2.27ZM589.48,351.84c3.69,0,8.24,1.14,11.93,1.14h98.55c.57,0,1.14.28,1.14,1.14s-.57,1.14-1.14,1.14h-98.55c-3.69,0-8.24,1.14-11.93,1.14-2.27,0-3.98-.85-3.98-2.27s1.7-2.27,3.98-2.27ZM589.48,361.22c3.69,0,8.24,1.14,11.93,1.14h98.55c.57,0,1.14.28,1.14,1.14s-.57,1.14-1.14,1.14h-98.55c-3.69,0-8.24,1.14-11.93,1.14-2.27,0-3.98-.85-3.98-2.27s1.7-2.27,3.98-2.27ZM589.48,370.59c3.69,0,8.24,1.14,11.93,1.14h98.55c.57,0,1.14.28,1.14,1.14s-.57,1.14-1.14,1.14h-98.55c-3.69,0-8.24,1.14-11.93,1.14-2.27,0-3.98-.85-3.98-2.27s1.7-2.27,3.98-2.27ZM589.48,379.96c3.69,0,8.24,1.14,11.93,1.14h36.07c.57,0,1.14.28,1.14,1.14s-.57,1.14-1.14,1.14h-36.07c-3.69,0-8.24,1.14-11.93,1.14-2.27,0-3.98-.85-3.98-2.27s1.7-2.27,3.98-2.27ZM589.48,389.33c3.69,0,8.24,1.14,11.93,1.14h36.07c.57,0,1.14.28,1.14,1.14s-.57,1.14-1.14,1.14h-36.07c-3.69,0-8.24,1.14-11.93,1.14-2.27,0-3.98-.85-3.98-2.27s1.7-2.27,3.98-2.27ZM589.48,398.7c3.69,0,8.24,1.14,11.93,1.14h81.79c.57,0,1.14.28,1.14,1.14s-.57,1.14-1.14,1.14h-81.79c-3.69,0-8.24,1.14-11.93,1.14-2.27,0-3.98-.85-3.98-2.27s1.7-2.27,3.98-2.27ZM589.48,408.08c3.69,0,8.24,1.14,11.93,1.14h81.79c.57,0,1.14.28,1.14,1.14s-.57,1.14-1.14,1.14h-81.79c-3.69,0-8.24,1.14-11.93,1.14-2.27,0-3.98-.85-3.98-2.27s1.7-2.27,3.98-2.27ZM589.48,417.45c3.69,0,8.24,1.14,11.93,1.14h81.79c.57,0,1.14.28,1.14,1.14s-.57,1.14-1.14,1.14h-81.79c-3.69,0-8.24,1.14-11.93,1.14-2.27,0-3.98-.85-3.98-2.27s1.7-2.27,3.98-2.27ZM589.48,426.82c3.69,0,8.24,1.14,11.93,1.14h36.07c.57,0,1.14.28,1.14,1.14s-.57,1.14-1.14,1.14h-36.07c-3.69,0-8.24,1.14-11.93,1.14-2.27,0-3.98-.85-3.98-2.27s1.7-2.27,3.98-2.27ZM589.48,436.19c3.69,0,8.24,1.14,11.93,1.14h36.07c.57,0,1.14.28,1.14,1.14s-.57,1.14-1.14,1.14h-36.07c-3.69,0-8.24,1.14-11.93,1.14-2.27,0-3.98-.85-3.98-2.27s1.7-2.27,3.98-2.27ZM589.48,445.56c3.69,0,8.24,1.14,11.93,1.14h98.55c.57,0,1.14.28,1.14,1.14s-.57,1.14-1.14,1.14h-98.55c-3.69,0-8.24,1.14-11.93,1.14-2.27,0-3.98-.85-3.98-2.27s1.7-2.27,3.98-2.27ZM589.48,454.94c3.69,0,8.24,1.14,11.93,1.14h98.55c.57,0,1.14.28,1.14,1.14s-.57,1.14-1.14,1.14h-98.55c-3.69,0-8.24,1.14-11.93,1.14-2.27,0-3.98-.85-3.98-2.27s1.7-2.27,3.98-2.27ZM589.48,464.31c3.69,0,8.24,1.14,11.93,1.14h98.55c.57,0,1.14.28,1.14,1.14s-.57,1.14-1.14,1.14h-98.55c-3.69,0-8.24,1.14-11.93,1.14-2.27,0-3.98-.85-3.98-2.27s1.7-2.27,3.98-2.27ZM589.48,473.68c3.69,0,8.24,1.14,11.93,1.14h98.55c.57,0,1.14.28,1.14,1.14s-.57,1.14-1.14,1.14h-98.55c-3.69,0-8.24,1.14-11.93,1.14-2.27,0-3.98-.85-3.98-2.27s1.7-2.27,3.98-2.27Z"/>
    <path class="cls-2" d="M736.59,342.47c3.69,0,8.24,1.14,11.93,1.14h98.55c.57,0,1.14.28,1.14,1.14s-.57,1.14-1.14,1.14h-98.55c-3.69,0-8.24,1.14-11.93,1.14-2.27,0-3.98-.85-3.98-2.27s1.7-2.27,3.98-2.27ZM736.59,351.84c3.69,0,8.24,1.14,11.93,1.14h98.55c.57,0,1.14.28,1.14,1.14s-.57,1.14-1.14,1.14h-98.55c-3.69,0-8.24,1.14-11.93,1.14-2.27,0-3.98-.85-3.98-2.27s1.7-2.27,3.98-2.27ZM736.59,361.22c3.69,0,8.24,1.14,11.93,1.14h98.55c.57,0,1.14.28,1.14,1.14s-.57,1.14-1.14,1.14h-98.55c-3.69,0-8.24,1.14-11.93,1.14-2.27,0-3.98-.85-3.98-2.27s1.7-2.27,3.98-2.27ZM736.59,370.59c3.69,0,8.24,1.14,11.93,1.14h98.55c.57,0,1.14.28,1.14,1.14s-.57,1.14-1.14,1.14h-98.55c-3.69,0-8.24,1.14-11.93,1.14-2.27,0-3.98-.85-3.98-2.27s1.7-2.27,3.98-2.27ZM736.59,379.96c3.69,0,8.24,1.14,11.93,1.14h36.07c.57,0,1.14.28,1.14,1.14s-.57,1.14-1.14,1.14h-36.07c-3.69,0-8.24,1.14-11.93,1.14-2.27,0-3.98-.85-3.98-2.27s1.7-2.27,3.98-2.27ZM736.59,389.33c3.69,0,8.24,1.14,11.93,1.14h36.07c.57,0,1.14.28,1.14,1.14s-.57,1.14-1.14,1.14h-36.07c-3.69,0-8.24,1.14-11.93,1.14-2.27,0-3.98-.85-3.98-2.27s1.7-2.27,3.98-2.27ZM736.59,398.7c3.69,0,8.24,1.14,11.93,1.14h81.79c.57,0,1.14.28,1.14,1.14s-.57,1.14-1.14,1.14h-81.79c-3.69,0-8.24,1.14-11.93,1.14-2.27,0-3.98-.85-3.98-2.27s1.7-2.27,3.98-2.27ZM736.59,408.08c3.69,0,8.24,1.14,11.93,1.14h81.79c.57,0,1.14.28,1.14,1.14s-.57,1.14-1.14,1.14h-81.79c-3.69,0-8.24,1.14-11.93,1.14-2.27,0-3.98-.85-3.98-2.27s1.7-2.27,3.98-2.27ZM736.59,417.45c3.69,0,8.24,1.14,11.93,1.14h81.79c.57,0,1.14.28,1.14,1.14s-.57,1.14-1.14,1.14h-81.79c-3.69,0-8.24,1.14-11.93,1.14-2.27,0-3.98-.85-3.98-2.27s1.7-2.27,3.98-2.27ZM736.59,426.82c3.69,0,8.24,1.14,11.93,1.14h36.07c.57,0,1.14.28,1.14,1.14s-.57,1.14-1.14,1.14h-36.07c-3.69,0-8.24,1.14-11.93,1.14-2.27,0-3.98-.85-3.98-2.27s1.7-2.27,3.98-2.27ZM736.59,436.19c3.69,0,8.24,1.14,11.93,1.14h36.07c.57,0,1.14.28,1.14,1.14s-.57,1.14-1.14,1.14h-36.07c-3.69,0-8.24,1.14-11.93,1.14-2.27,0-3.98-.85-3.98-2.27s1.7-2.27,3.98-2.27ZM736.59,445.56c3.69,0,8.24,1.14,11.93,1.14h98.55c.57,0,1.14.28,1.14,1.14s-.57,1.14-1.14,1.14h-98.55c-3.69,0-8.24,1.14-11.93,1.14-2.27,0-3.98-.85-3.98-2.27s1.7-2.27,3.98-2.27ZM736.59,454.94c3.69,0,8.24,1.14,11.93,1.14h98.55c.57,0,1.14.28,1.14,1.14s-.57,1.14-1.14,1.14h-98.55c-3.69,0-8.24,1.14-11.93,1.14-2.27,0-3.98-.85-3.98-2.27s1.7-2.27,3.98-2.27ZM736.59,464.31c3.69,0,8.24,1.14,11.93,1.14h98.55c.57,0,1.14.28,1.14,1.14s-.57,1.14-1.14,1.14h-98.55c-3.69,0-8.24,1.14-11.93,1.14-2.27,0-3.98-.85-3.98-2.27s1.7-2.27,3.98-2.27ZM736.59,473.68c3.69,0,8.24,1.14,11.93,1.14h98.55c.57,0,1.14.28,1.14,1.14s-.57,1.14-1.14,1.14h-98.55c-3.69,0-8.24,1.14-11.93,1.14-2.27,0-3.98-.85-3.98-2.27s1.7-2.27,3.98-2.27Z"/>
    <path class="cls-2" d="M876.31,342.47c3.69,0,8.24,1.14,11.93,1.14h110.47c.57,0,1.14.28,1.14,1.14s-.57,1.14-1.14,1.14h-110.47c-3.69,0-8.24,1.14-11.93,1.14-2.27,0-3.98-.85-3.98-2.27s1.7-2.27,3.98-2.27ZM876.31,351.84c3.69,0,8.24,1.14,11.93,1.14h110.47c.57,0,1.14.28,1.14,1.14s-.57,1.14-1.14,1.14h-110.47c-3.69,0-8.24,1.14-11.93,1.14-2.27,0-3.98-.85-3.98-2.27s1.7-2.27,3.98-2.27ZM876.31,361.22c3.69,0,8.24,1.14,11.93,1.14h110.47c.57,0,1.14.28,1.14,1.14s-.57,1.14-1.14,1.14h-110.47c-3.69,0-8.24,1.14-11.93,1.14-2.27,0-3.98-.85-3.98-2.27s1.7-2.27,3.98-2.27ZM876.31,370.59c3.69,0,8.24,1.14,11.93,1.14h110.47c.57,0,1.14.28,1.14,1.14s-.57,1.14-1.14,1.14h-110.47c-3.69,0-8.24,1.14-11.93,1.14-2.27,0-3.98-.85-3.98-2.27s1.7-2.27,3.98-2.27ZM998.72,381.1c.57,0,1.14.28,1.14,1.14s-.57,1.14-1.14,1.14h-125.24c-.57,0-1.14-.28-1.14-1.14s.57-1.14,1.14-1.14h125.24ZM913.52,389.33c3.69,0,8.24,1.14,11.93,1.14h36.07c.57,0,1.14.28,1.14,1.14s-.57,1.14-1.14,1.14h-36.07c-3.69,0-8.24,1.14-11.93,1.14-2.27,0-3.98-.85-3.98-2.27s1.7-2.27,3.98-2.27ZM913.52,398.7c3.69,0,8.24,1.14,11.93,1.14h36.07c.57,0,1.14.28,1.14,1.14s-.57,1.14-1.14,1.14h-36.07c-3.69,0-8.24,1.14-11.93,1.14-2.27,0-3.98-.85-3.98-2.27s1.7-2.27,3.98-2.27ZM913.52,408.08c3.69,0,8.24,1.14,11.93,1.14h36.07c.57,0,1.14.28,1.14,1.14s-.57,1.14-1.14,1.14h-36.07c-3.69,0-8.24,1.14-11.93,1.14-2.27,0-3.98-.85-3.98-2.27s1.7-2.27,3.98-2.27ZM913.52,417.45c3.69,0,8.24,1.14,11.93,1.14h36.07c.57,0,1.14.28,1.14,1.14s-.57,1.14-1.14,1.14h-36.07c-3.69,0-8.24,1.14-11.93,1.14-2.27,0-3.98-.85-3.98-2.27s1.7-2.27,3.98-2.27ZM913.52,426.82c3.69,0,8.24,1.14,11.93,1.14h36.07c.57,0,1.14.28,1.14,1.14s-.57,1.14-1.14,1.14h-36.07c-3.69,0-8.24,1.14-11.93,1.14-2.27,0-3.98-.85-3.98-2.27s1.7-2.27,3.98-2.27ZM913.52,436.19c3.69,0,8.24,1.14,11.93,1.14h36.07c.57,0,1.14.28,1.14,1.14s-.57,1.14-1.14,1.14h-36.07c-3.69,0-8.24,1.14-11.93,1.14-2.27,0-3.98-.85-3.98-2.27s1.7-2.27,3.98-2.27ZM913.52,445.56c3.69,0,8.24,1.14,11.93,1.14h36.07c.57,0,1.14.28,1.14,1.14s-.57,1.14-1.14,1.14h-36.07c-3.69,0-8.24,1.14-11.93,1.14-2.27,0-3.98-.85-3.98-2.27s1.7-2.27,3.98-2.27ZM913.52,454.94c3.69,0,8.24,1.14,11.93,1.14h36.07c.57,0,1.14.28,1.14,1.14s-.57,1.14-1.14,1.14h-36.07c-3.69,0-8.24,1.14-11.93,1.14-2.27,0-3.98-.85-3.98-2.27s1.7-2.27,3.98-2.27ZM913.52,464.31c3.69,0,8.24,1.14,11.93,1.14h36.07c.57,0,1.14.28,1.14,1.14s-.57,1.14-1.14,1.14h-36.07c-3.69,0-8.24,1.14-11.93,1.14-2.27,0-3.98-.85-3.98-2.27s1.7-2.27,3.98-2.27ZM913.52,473.68c3.69,0,8.24,1.14,11.93,1.14h36.07c.57,0,1.14.28,1.14,1.14s-.57,1.14-1.14,1.14h-36.07c-3.69,0-8.24,1.14-11.93,1.14-2.27,0-3.98-.85-3.98-2.27s1.7-2.27,3.98-2.27Z"/>
    <path class="cls-2" d="M1025.41,342.47c3.69,0,8.24,1.14,11.93,1.14h29.54c.57,0,1.14.28,1.14,1.14s-.57,1.14-1.14,1.14h-29.54c-3.69,0-8.24,1.14-11.93,1.14-2.27,0-3.98-.85-3.98-2.27s1.7-2.27,3.98-2.27ZM1027.69,351.84c3.69,0,8.24,1.14,11.93,1.14h29.25c.57,0,1.14.28,1.14,1.14s-.57,1.14-1.14,1.14h-29.25c-3.69,0-8.24,1.14-11.93,1.14-2.27,0-3.98-.85-3.98-2.27s1.7-2.27,3.98-2.27ZM1029.96,361.22c3.69,0,8.24,1.14,11.93,1.14h28.68c.57,0,1.14.28,1.14,1.14s-.57,1.14-1.14,1.14h-28.68c-3.69,0-8.24,1.14-11.93,1.14-2.27,0-3.98-.85-3.98-2.27s1.7-2.27,3.98-2.27ZM1032.23,370.59c3.69,0,8.24,1.14,11.93,1.14h28.4c.57,0,1.14.28,1.14,1.14s-.57,1.14-1.14,1.14h-28.4c-3.69,0-8.24,1.14-11.93,1.14-2.27,0-3.98-.85-3.98-2.27s1.7-2.27,3.98-2.27ZM1034.5,379.96c3.69,0,8.24,1.14,11.93,1.14h27.83c.57,0,1.14.28,1.14,1.14s-.57,1.14-1.14,1.14h-27.83c-3.69,0-8.24,1.14-11.93,1.14-2.27,0-3.98-.85-3.98-2.27s1.7-2.27,3.98-2.27ZM1036.77,389.33c3.69,0,8.24,1.14,11.93,1.14h27.55c.57,0,1.14.28,1.14,1.14s-.57,1.14-1.14,1.14h-27.55c-3.69,0-8.24,1.14-11.93,1.14-2.27,0-3.98-.85-3.98-2.27s1.7-2.27,3.98-2.27ZM1039.05,398.7c3.69,0,8.24,1.14,11.93,1.14h26.98c.57,0,1.14.28,1.14,1.14s-.57,1.14-1.14,1.14h-26.98c-3.69,0-8.24,1.14-11.93,1.14-2.27,0-3.98-.85-3.98-2.27s1.7-2.27,3.98-2.27ZM1041.03,408.08c3.69,0,8.24,1.14,11.93,1.14h176.08c.57,0,1.14.28,1.14,1.14s-.57,1.14-1.14,1.14h-176.08c-3.69,0-8.24,1.14-11.93,1.14-2.27,0-3.98-.85-3.98-2.27s1.7-2.27,3.98-2.27ZM1043.31,417.45c3.69,0,8.24,1.14,11.93,1.14h67.59c.57,0,1.14.28,1.14,1.14s-.57,1.14-1.14,1.14h-67.59c-3.69,0-8.24,1.14-11.93,1.14-2.27,0-3.98-.85-3.98-2.27s1.7-2.27,3.98-2.27ZM1045.58,426.82c3.69,0,8.24,1.14,11.93,1.14h63.62c.57,0,1.14.28,1.14,1.14s-.57,1.14-1.14,1.14h-63.62c-3.69,0-8.24,1.14-11.93,1.14-2.27,0-3.98-.85-3.98-2.27s1.7-2.27,3.98-2.27ZM1047.85,436.19c3.69,0,8.24,1.14,11.93,1.14h59.36c.57,0,1.14.28,1.14,1.14s-.57,1.14-1.14,1.14h-59.36c-3.69,0-8.24,1.14-11.93,1.14-2.27,0-3.98-.85-3.98-2.27s1.7-2.27,3.98-2.27ZM1049.84,445.56c3.69,0,8.24,1.14,11.93,1.14h55.66c.57,0,1.14.28,1.14,1.14s-.57,1.14-1.14,1.14h-55.66c-3.69,0-8.24,1.14-11.93,1.14-2.27,0-3.98-.85-3.98-2.27s1.7-2.27,3.98-2.27ZM1052.11,454.94c3.69,0,8.24,1.14,11.93,1.14h51.4c.57,0,1.14.28,1.14,1.14s-.57,1.14-1.14,1.14h-51.4c-3.69,0-8.24,1.14-11.93,1.14-2.27,0-3.98-.85-3.98-2.27s1.7-2.27,3.98-2.27ZM1054.38,464.31c3.69,0,8.24,1.14,11.93,1.14h47.14c.57,0,1.14.28,1.14,1.14s-.57,1.14-1.14,1.14h-47.14c-3.69,0-8.24,1.14-11.93,1.14-2.27,0-3.98-.85-3.98-2.27s1.7-2.27,3.98-2.27ZM1056.65,473.68c3.69,0,8.24,1.14,11.93,1.14h43.17c.57,0,1.14.28,1.14,1.14s-.57,1.14-1.14,1.14h-43.17c-3.69,0-8.24,1.14-11.93,1.14-2.27,0-3.98-.85-3.98-2.27s1.7-2.27,3.98-2.27ZM1102.94,398.7c3.69,0,8.24,1.14,11.93,1.14h55.1c.57,0,1.14.28,1.14,1.14s-.57,1.14-1.14,1.14h-55.1c-3.69,0-8.24,1.14-11.93,1.14-2.27,0-3.98-.85-3.98-2.27s1.7-2.27,3.98-2.27ZM1104.65,389.33c3.69,0,8.24,1.14,11.93,1.14h51.12c.57,0,1.14.28,1.14,1.14s-.57,1.14-1.14,1.14h-51.12c-3.69,0-8.24,1.14-11.93,1.14-2.27,0-3.98-.85-3.98-2.27s1.7-2.27,3.98-2.27ZM1106.64,379.96c3.69,0,8.24,1.14,11.93,1.14h47.14c.57,0,1.14.28,1.14,1.14s-.57,1.14-1.14,1.14h-47.14c-3.69,0-8.24,1.14-11.93,1.14-2.27,0-3.98-.85-3.98-2.27s1.7-2.27,3.98-2.27ZM1108.34,370.59c3.69,0,8.24,1.14,11.93,1.14h43.74c.57,0,1.14.28,1.14,1.14s-.57,1.14-1.14,1.14h-43.74c-3.69,0-8.24,1.14-11.93,1.14-2.27,0-3.98-.85-3.98-2.27s1.7-2.27,3.98-2.27ZM1110.33,361.22c3.69,0,8.24,1.14,11.93,1.14h39.76c.57,0,1.14.28,1.14,1.14s-.57,1.14-1.14,1.14h-39.76c-3.69,0-8.24,1.14-11.93,1.14-2.27,0-3.98-.85-3.98-2.27s1.7-2.27,3.98-2.27ZM1112.32,351.84c3.69,0,8.24,1.14,11.93,1.14h36.07c.57,0,1.14.28,1.14,1.14s-.57,1.14-1.14,1.14h-36.07c-3.69,0-8.24,1.14-11.93,1.14-2.27,0-3.98-.85-3.98-2.27s1.7-2.27,3.98-2.27ZM1114.3,342.47c3.69,0,8.24,1.14,11.93,1.14h32.38c.57,0,1.14.28,1.14,1.14s-.57,1.14-1.14,1.14h-32.38c-3.69,0-8.24,1.14-11.93,1.14-2.27,0-3.98-.85-3.98-2.27s1.7-2.27,3.98-2.27ZM1147.25,417.45c3.69,0,8.24,1.14,11.93,1.14h67.31c.57,0,1.14.28,1.14,1.14s-.57,1.14-1.14,1.14h-67.31c-3.69,0-8.24,1.14-11.93,1.14-2.27,0-3.98-.85-3.98-2.27s1.7-2.27,3.98-2.27ZM1148.95,426.82c3.69,0,8.24,1.14,11.93,1.14h63.33c.57,0,1.14.28,1.14,1.14s-.57,1.14-1.14,1.14h-63.33c-3.69,0-8.24,1.14-11.93,1.14-2.27,0-3.98-.85-3.98-2.27s1.7-2.27,3.98-2.27ZM1150.94,436.19c3.69,0,8.24,1.14,11.93,1.14h59.07c.57,0,1.14.28,1.14,1.14s-.57,1.14-1.14,1.14h-59.07c-3.69,0-8.24,1.14-11.93,1.14-2.27,0-3.98-.85-3.98-2.27s1.7-2.27,3.98-2.27ZM1152.64,445.56c3.69,0,8.24,1.14,11.93,1.14h55.38c.57,0,1.14.28,1.14,1.14s-.57,1.14-1.14,1.14h-55.38c-3.69,0-8.24,1.14-11.93,1.14-2.27,0-3.98-.85-3.98-2.27s1.7-2.27,3.98-2.27ZM1154.63,454.94c3.69,0,8.24,1.14,11.93,1.14h51.12c.57,0,1.14.28,1.14,1.14s-.57,1.14-1.14,1.14h-51.12c-3.69,0-8.24,1.14-11.93,1.14-2.27,0-3.98-.85-3.98-2.27s1.7-2.27,3.98-2.27ZM1156.62,464.31c3.69,0,8.24,1.14,11.93,1.14h46.86c.57,0,1.14.28,1.14,1.14s-.57,1.14-1.14,1.14h-46.86c-3.69,0-8.24,1.14-11.93,1.14-2.27,0-3.98-.85-3.98-2.27s1.7-2.27,3.98-2.27ZM1158.32,473.68c3.69,0,8.24,1.14,11.93,1.14h42.88c.57,0,1.14.28,1.14,1.14s-.57,1.14-1.14,1.14h-42.88c-3.69,0-8.24,1.14-11.93,1.14-2.27,0-3.98-.85-3.98-2.27s1.7-2.27,3.98-2.27ZM1194.11,398.7c3.69,0,8.24,1.14,11.93,1.14h25.28c.57,0,1.14.28,1.14,1.14s-.57,1.14-1.14,1.14h-25.28c-3.69,0-8.24,1.14-11.93,1.14-2.27,0-3.98-.85-3.98-2.27s1.7-2.27,3.98-2.27ZM1195.81,389.33c3.69,0,8.24,1.14,11.93,1.14h25.84c.57,0,1.14.28,1.14,1.14s-.57,1.14-1.14,1.14h-25.84c-3.69,0-8.24,1.14-11.93,1.14-2.27,0-3.98-.85-3.98-2.27s1.7-2.27,3.98-2.27ZM1197.8,379.96c3.69,0,8.24,1.14,11.93,1.14h26.13c.57,0,1.14.28,1.14,1.14s-.57,1.14-1.14,1.14h-26.13c-3.69,0-8.24,1.14-11.93,1.14-2.27,0-3.98-.85-3.98-2.27s1.7-2.27,3.98-2.27ZM1199.5,370.59c3.69,0,8.24,1.14,11.93,1.14h26.7c.57,0,1.14.28,1.14,1.14s-.57,1.14-1.14,1.14h-26.7c-3.69,0-8.24,1.14-11.93,1.14-2.27,0-3.98-.85-3.98-2.27s1.7-2.27,3.98-2.27ZM1201.49,361.22c3.69,0,8.24,1.14,11.93,1.14h26.98c.57,0,1.14.28,1.14,1.14s-.57,1.14-1.14,1.14h-26.98c-3.69,0-8.24,1.14-11.93,1.14-2.27,0-3.98-.85-3.98-2.27s1.7-2.27,3.98-2.27ZM1203.2,351.84c3.69,0,8.24,1.14,11.93,1.14h27.55c.57,0,1.14.28,1.14,1.14s-.57,1.14-1.14,1.14h-27.55c-3.69,0-8.24,1.14-11.93,1.14-2.27,0-3.98-.85-3.98-2.27s1.7-2.27,3.98-2.27ZM1205.18,342.47c3.69,0,8.24,1.14,11.93,1.14h27.83c.57,0,1.14.28,1.14,1.14s-.57,1.14-1.14,1.14h-27.83c-3.69,0-8.24,1.14-11.93,1.14-2.27,0-3.98-.85-3.98-2.27s1.7-2.27,3.98-2.27Z"/>
    <path class="cls-2" d="M1254.32,473.68c3.69,0,8.24,1.14,11.93,1.14h33.23c.57,0,1.14.28,1.14,1.14s-.57,1.14-1.14,1.14h-33.23c-3.69,0-8.24,1.14-11.93,1.14-2.27,0-3.98-.85-3.98-2.27s1.7-2.27,3.98-2.27ZM1257.72,464.31c3.69,0,8.24,1.14,11.93,1.14h138.02c.57,0,1.14.28,1.14,1.14s-.57,1.14-1.14,1.14h-138.02c-3.69,0-8.24,1.14-11.93,1.14-2.27,0-3.98-.85-3.98-2.27s1.7-2.27,3.98-2.27ZM1260.85,454.94c3.69,0,8.24,1.14,11.93,1.14h131.49c.57,0,1.14.28,1.14,1.14s-.57,1.14-1.14,1.14h-131.49c-3.69,0-8.24,1.14-11.93,1.14-2.27,0-3.98-.85-3.98-2.27s1.7-2.27,3.98-2.27ZM1263.97,445.56c3.69,0,8.24,1.14,11.93,1.14h125.24c.57,0,1.14.28,1.14,1.14s-.57,1.14-1.14,1.14h-125.24c-3.69,0-8.24,1.14-11.93,1.14-2.27,0-3.98-.85-3.98-2.27s1.7-2.27,3.98-2.27ZM1267.1,436.19c3.69,0,8.24,1.14,11.93,1.14h119c.57,0,1.14.28,1.14,1.14s-.57,1.14-1.14,1.14h-119c-3.69,0-8.24,1.14-11.93,1.14-2.27,0-3.98-.85-3.98-2.27s1.7-2.27,3.98-2.27ZM1270.51,426.82c3.69,0,8.24,1.14,11.93,1.14h26.98c.57,0,1.14.28,1.14,1.14s-.57,1.14-1.14,1.14h-26.98c-3.69,0-8.24,1.14-11.93,1.14-2.27,0-3.98-.85-3.98-2.27s1.7-2.27,3.98-2.27ZM1273.63,417.45c3.69,0,8.24,1.14,11.93,1.14h26.13c.57,0,1.14.28,1.14,1.14s-.57,1.14-1.14,1.14h-26.13c-3.69,0-8.24,1.14-11.93,1.14-2.27,0-3.98-.85-3.98-2.27s1.7-2.27,3.98-2.27ZM1276.75,408.08c3.69,0,8.24,1.14,11.93,1.14h25.28c.57,0,1.14.28,1.14,1.14s-.57,1.14-1.14,1.14h-25.28c-3.69,0-8.24,1.14-11.93,1.14-2.27,0-3.98-.85-3.98-2.27s1.7-2.27,3.98-2.27ZM1279.88,398.7c3.69,0,8.24,1.14,11.93,1.14h24.14c.57,0,1.14.28,1.14,1.14s-.57,1.14-1.14,1.14h-24.14c-3.69,0-8.24,1.14-11.93,1.14-2.27,0-3.98-.85-3.98-2.27s1.7-2.27,3.98-2.27ZM1283,389.33c3.69,0,8.24,1.14,11.93,1.14h23.29c.57,0,1.14.28,1.14,1.14s-.57,1.14-1.14,1.14h-23.29c-3.69,0-8.24,1.14-11.93,1.14-2.27,0-3.98-.85-3.98-2.27s1.7-2.27,3.98-2.27ZM1286.13,379.96c3.69,0,8.24,1.14,11.93,1.14h80.94c.57,0,1.14.28,1.14,1.14s-.57,1.14-1.14,1.14h-80.94c-3.69,0-8.24,1.14-11.93,1.14-2.27,0-3.98-.85-3.98-2.27s1.7-2.27,3.98-2.27ZM1289.25,370.59c3.69,0,8.24,1.14,11.93,1.14h74.41c.57,0,1.14.28,1.14,1.14s-.57,1.14-1.14,1.14h-74.41c-3.69,0-8.24,1.14-11.93,1.14-2.27,0-3.98-.85-3.98-2.27s1.7-2.27,3.98-2.27ZM1292.66,361.22c3.69,0,8.24,1.14,11.93,1.14h67.88c.57,0,1.14.28,1.14,1.14s-.57,1.14-1.14,1.14h-67.88c-3.69,0-8.24,1.14-11.93,1.14-2.27,0-3.98-.85-3.98-2.27s1.7-2.27,3.98-2.27ZM1295.78,351.84c3.69,0,8.24,1.14,11.93,1.14h61.63c.57,0,1.14.28,1.14,1.14s-.57,1.14-1.14,1.14h-61.63c-3.69,0-8.24,1.14-11.93,1.14-2.27,0-3.98-.85-3.98-2.27s1.7-2.27,3.98-2.27ZM1298.9,342.47c3.69,0,8.24,1.14,11.93,1.14h55.38c.57,0,1.14.28,1.14,1.14s-.57,1.14-1.14,1.14h-55.38c-3.69,0-8.24,1.14-11.93,1.14-2.27,0-3.98-.85-3.98-2.27s1.7-2.27,3.98-2.27ZM1343.78,389.33c3.69,0,8.24,1.14,11.93,1.14h26.41c.57,0,1.14.28,1.14,1.14s-.57,1.14-1.14,1.14h-26.41c-3.69,0-8.24,1.14-11.93,1.14-2.27,0-3.98-.85-3.98-2.27s1.7-2.27,3.98-2.27ZM1346.05,398.7c3.69,0,8.24,1.14,11.93,1.14h27.26c.57,0,1.14.28,1.14,1.14s-.57,1.14-1.14,1.14h-27.26c-3.69,0-8.24,1.14-11.93,1.14-2.27,0-3.98-.85-3.98-2.27s1.7-2.27,3.98-2.27ZM1348.32,408.08c3.69,0,8.24,1.14,11.93,1.14h28.12c.57,0,1.14.28,1.14,1.14s-.57,1.14-1.14,1.14h-28.12c-3.69,0-8.24,1.14-11.93,1.14-2.27,0-3.98-.85-3.98-2.27s1.7-2.27,3.98-2.27ZM1350.59,417.45c3.69,0,8.24,1.14,11.93,1.14h28.97c.57,0,1.14.28,1.14,1.14s-.57,1.14-1.14,1.14h-28.97c-3.69,0-8.24,1.14-11.93,1.14-2.27,0-3.98-.85-3.98-2.27s1.7-2.27,3.98-2.27ZM1352.86,426.82c3.69,0,8.24,1.14,11.93,1.14h30.1c.57,0,1.14.28,1.14,1.14s-.57,1.14-1.14,1.14h-30.1c-3.69,0-8.24,1.14-11.93,1.14-2.27,0-3.98-.85-3.98-2.27s1.7-2.27,3.98-2.27ZM1362.52,473.68c3.69,0,8.24,1.14,11.93,1.14h36.07c.57,0,1.14.28,1.14,1.14s-.57,1.14-1.14,1.14h-36.07c-3.69,0-8.24,1.14-11.93,1.14-2.27,0-3.98-.85-3.98-2.27s1.7-2.27,3.98-2.27Z"/>
    <path class="cls-2" d="M1419.89,342.47c3.69,0,8.24,1.14,11.93,1.14h110.47c.57,0,1.14.28,1.14,1.14s-.57,1.14-1.14,1.14h-110.47c-3.69,0-8.24,1.14-11.93,1.14-2.27,0-3.98-.85-3.98-2.27s1.7-2.27,3.98-2.27ZM1419.89,351.84c3.69,0,8.24,1.14,11.93,1.14h110.47c.57,0,1.14.28,1.14,1.14s-.57,1.14-1.14,1.14h-110.47c-3.69,0-8.24,1.14-11.93,1.14-2.27,0-3.98-.85-3.98-2.27s1.7-2.27,3.98-2.27ZM1419.89,361.22c3.69,0,8.24,1.14,11.93,1.14h110.47c.57,0,1.14.28,1.14,1.14s-.57,1.14-1.14,1.14h-110.47c-3.69,0-8.24,1.14-11.93,1.14-2.27,0-3.98-.85-3.98-2.27s1.7-2.27,3.98-2.27ZM1419.89,370.59c3.69,0,8.24,1.14,11.93,1.14h110.47c.57,0,1.14.28,1.14,1.14s-.57,1.14-1.14,1.14h-110.47c-3.69,0-8.24,1.14-11.93,1.14-2.27,0-3.98-.85-3.98-2.27s1.7-2.27,3.98-2.27ZM1542.29,381.1c.57,0,1.14.28,1.14,1.14s-.57,1.14-1.14,1.14h-125.24c-.57,0-1.14-.28-1.14-1.14s.57-1.14,1.14-1.14h125.24ZM1457.09,389.33c3.69,0,8.24,1.14,11.93,1.14h36.07c.57,0,1.14.28,1.14,1.14s-.57,1.14-1.14,1.14h-36.07c-3.69,0-8.24,1.14-11.93,1.14-2.27,0-3.98-.85-3.98-2.27s1.7-2.27,3.98-2.27ZM1457.09,398.7c3.69,0,8.24,1.14,11.93,1.14h36.07c.57,0,1.14.28,1.14,1.14s-.57,1.14-1.14,1.14h-36.07c-3.69,0-8.24,1.14-11.93,1.14-2.27,0-3.98-.85-3.98-2.27s1.7-2.27,3.98-2.27ZM1457.09,408.08c3.69,0,8.24,1.14,11.93,1.14h36.07c.57,0,1.14.28,1.14,1.14s-.57,1.14-1.14,1.14h-36.07c-3.69,0-8.24,1.14-11.93,1.14-2.27,0-3.98-.85-3.98-2.27s1.7-2.27,3.98-2.27ZM1457.09,417.45c3.69,0,8.24,1.14,11.93,1.14h36.07c.57,0,1.14.28,1.14,1.14s-.57,1.14-1.14,1.14h-36.07c-3.69,0-8.24,1.14-11.93,1.14-2.27,0-3.98-.85-3.98-2.27s1.7-2.27,3.98-2.27ZM1457.09,426.82c3.69,0,8.24,1.14,11.93,1.14h36.07c.57,0,1.14.28,1.14,1.14s-.57,1.14-1.14,1.14h-36.07c-3.69,0-8.24,1.14-11.93,1.14-2.27,0-3.98-.85-3.98-2.27s1.7-2.27,3.98-2.27ZM1457.09,436.19c3.69,0,8.24,1.14,11.93,1.14h36.07c.57,0,1.14.28,1.14,1.14s-.57,1.14-1.14,1.14h-36.07c-3.69,0-8.24,1.14-11.93,1.14-2.27,0-3.98-.85-3.98-2.27s1.7-2.27,3.98-2.27ZM1457.09,445.56c3.69,0,8.24,1.14,11.93,1.14h36.07c.57,0,1.14.28,1.14,1.14s-.57,1.14-1.14,1.14h-36.07c-3.69,0-8.24,1.14-11.93,1.14-2.27,0-3.98-.85-3.98-2.27s1.7-2.27,3.98-2.27ZM1457.09,454.94c3.69,0,8.24,1.14,11.93,1.14h36.07c.57,0,1.14.28,1.14,1.14s-.57,1.14-1.14,1.14h-36.07c-3.69,0-8.24,1.14-11.93,1.14-2.27,0-3.98-.85-3.98-2.27s1.7-2.27,3.98-2.27ZM1457.09,464.31c3.69,0,8.24,1.14,11.93,1.14h36.07c.57,0,1.14.28,1.14,1.14s-.57,1.14-1.14,1.14h-36.07c-3.69,0-8.24,1.14-11.93,1.14-2.27,0-3.98-.85-3.98-2.27s1.7-2.27,3.98-2.27ZM1457.09,473.68c3.69,0,8.24,1.14,11.93,1.14h36.07c.57,0,1.14.28,1.14,1.14s-.57,1.14-1.14,1.14h-36.07c-3.69,0-8.24,1.14-11.93,1.14-2.27,0-3.98-.85-3.98-2.27s1.7-2.27,3.98-2.27Z"/>
    <path class="cls-2" d="M1568.14,408.08c3.69,0,8.24,1.14,11.93,1.14h37.49c.57,0,1.14.28,1.14,1.14s-.57,1.14-1.14,1.14h-37.49c-3.69,0-8.24,1.14-11.93,1.14-2.27,0-3.98-.85-3.98-2.27s1.7-2.27,3.98-2.27ZM1568.71,398.7c3.69,0,8.24,1.14,11.93,1.14h37.49c.57,0,1.14.28,1.14,1.14s-.57,1.14-1.14,1.14h-37.49c-3.69,0-8.24,1.14-11.93,1.14-2.27,0-3.98-.85-3.98-2.27s1.7-2.27,3.98-2.27ZM1568.71,417.45c3.69,0,8.24,1.14,11.93,1.14h37.49c.57,0,1.14.28,1.14,1.14s-.57,1.14-1.14,1.14h-37.49c-3.69,0-8.24,1.14-11.93,1.14-2.27,0-3.98-.85-3.98-2.27s1.7-2.27,3.98-2.27ZM1569.56,389.33c3.69,0,8.24,1.14,11.93,1.14h39.48c.57,0,1.14.28,1.14,1.14s-.57,1.14-1.14,1.14h-39.48c-3.69,0-8.24,1.14-11.93,1.14-2.27,0-3.98-.85-3.98-2.27s1.7-2.27,3.98-2.27ZM1569.56,426.82c3.69,0,8.24,1.14,11.93,1.14h39.48c.57,0,1.14.28,1.14,1.14s-.57,1.14-1.14,1.14h-39.48c-3.69,0-8.24,1.14-11.93,1.14-2.27,0-3.98-.85-3.98-2.27s1.7-2.27,3.98-2.27ZM1572.11,379.96c3.69,0,8.24,1.14,11.93,1.14h45.16c.57,0,1.14.28,1.14,1.14s-.57,1.14-1.14,1.14h-45.16c-3.69,0-8.24,1.14-11.93,1.14-2.27,0-3.98-.85-3.98-2.27s1.7-2.27,3.98-2.27ZM1572.11,436.19c3.69,0,8.24,1.14,11.93,1.14h45.16c.57,0,1.14.28,1.14,1.14s-.57,1.14-1.14,1.14h-45.16c-3.69,0-8.24,1.14-11.93,1.14-2.27,0-3.98-.85-3.98-2.27s1.7-2.27,3.98-2.27ZM1714.11,371.72c.57,0,1.14.28,1.14,1.14s-.57,1.14-1.14,1.14h-126.09c-3.69,0-8.24,1.14-11.93,1.14-2.27,0-3.98-.85-3.98-2.27s1.7-2.27,3.98-2.27c3.69,0,8.24,1.14,11.93,1.14h126.09ZM1714.11,446.7c.57,0,1.14.28,1.14,1.14s-.57,1.14-1.14,1.14h-126.09c-3.69,0-8.24,1.14-11.93,1.14-2.27,0-3.98-.85-3.98-2.27s1.7-2.27,3.98-2.27c3.69,0,8.24,1.14,11.93,1.14h126.09ZM1708.43,362.35c.57,0,1.14.28,1.14,1.14s-.57,1.14-1.14,1.14h-114.73c-3.69,0-8.24,1.14-11.93,1.14-2.27,0-3.98-.85-3.98-2.27s1.7-2.27,3.98-2.27c3.69,0,8.24,1.14,11.93,1.14h114.73ZM1708.43,456.07c.57,0,1.14.28,1.14,1.14s-.57,1.14-1.14,1.14h-114.73c-3.69,0-8.24,1.14-11.93,1.14-2.27,0-3.98-.85-3.98-2.27s1.7-2.27,3.98-2.27c3.69,0,8.24,1.14,11.93,1.14h114.73ZM1699.63,352.98c.57,0,1.14.28,1.14,1.14s-.57,1.14-1.14,1.14h-96.56c-3.69,0-8.24,1.14-11.93,1.14-2.27,0-3.98-.85-3.98-2.27s1.7-2.27,3.98-2.27c3.69,0,8.24,1.14,11.93,1.14h96.56ZM1699.63,465.44c.57,0,1.14.28,1.14,1.14s-.57,1.14-1.14,1.14h-96.56c-3.69,0-8.24,1.14-11.93,1.14-2.27,0-3.98-.85-3.98-2.27s1.7-2.27,3.98-2.27c3.69,0,8.24,1.14,11.93,1.14h96.56ZM1684.58,343.61c.57,0,1.14.28,1.14,1.14s-.57,1.14-1.14,1.14h-66.46c-3.69,0-8.24,1.14-11.93,1.14-2.27,0-3.98-.85-3.98-2.27s1.7-2.27,3.98-2.27c3.69,0,8.24,1.14,11.93,1.14h66.46ZM1618.12,477.09c-3.69,0-8.24,1.14-11.93,1.14-2.27,0-3.98-.85-3.98-2.27s1.7-2.27,3.98-2.27c3.69,0,8.24,1.14,11.93,1.14h66.46c.57,0,1.14.28,1.14,1.14s-.57,1.14-1.14,1.14h-66.46ZM1634.88,337.08c-.57,0-1.14-.28-1.14-1.14s.57-1.14,1.14-1.14h18.18c.57,0,1.14.28,1.14,1.14s-.57,1.14-1.14,1.14h-18.18ZM1653.05,483.62c.57,0,1.14.28,1.14,1.14s-.57,1.14-1.14,1.14h-18.18c-.57,0-1.14-.28-1.14-1.14s.57-1.14,1.14-1.14h18.18ZM1663.56,380.24c3.69,0,8.24,1.14,11.93,1.14h42.6c.57,0,1.14.28,1.14,1.14s-.57,1.14-1.14,1.14h-42.6c-3.69,0-8.24,1.14-11.93,1.14-2.27,0-3.98-.85-3.98-2.27s1.7-2.27,3.98-2.27ZM1663.56,435.91c3.69,0,8.24,1.14,11.93,1.14h42.6c.57,0,1.14.28,1.14,1.14s-.57,1.14-1.14,1.14h-42.6c-3.69,0-8.24,1.14-11.93,1.14-2.27,0-3.98-.85-3.98-2.27s1.7-2.27,3.98-2.27ZM1670.94,389.9c3.69,0,8.24,1.14,11.93,1.14h37.2c.57,0,1.14.28,1.14,1.14s-.57,1.14-1.14,1.14h-37.2c-3.69,0-8.24,1.14-11.93,1.14-2.27,0-3.98-.85-3.98-2.27s1.7-2.27,3.98-2.27ZM1670.94,426.25c3.69,0,8.24,1.14,11.93,1.14h37.2c.57,0,1.14.28,1.14,1.14s-.57,1.14-1.14,1.14h-37.2c-3.69,0-8.24,1.14-11.93,1.14-2.27,0-3.98-.85-3.98-2.27s1.7-2.27,3.98-2.27Z"/>
    <path class="cls-2" d="M1754.15,342.47c3.69,0,8.24,1.14,11.93,1.14h36.07c.57,0,1.14.28,1.14,1.14s-.57,1.14-1.14,1.14h-36.07c-3.69,0-8.24,1.14-11.93,1.14-2.27,0-3.98-.85-3.98-2.27s1.7-2.27,3.98-2.27ZM1754.15,351.84c3.69,0,8.24,1.14,11.93,1.14h36.07c.57,0,1.14.28,1.14,1.14s-.57,1.14-1.14,1.14h-36.07c-3.69,0-8.24,1.14-11.93,1.14-2.27,0-3.98-.85-3.98-2.27s1.7-2.27,3.98-2.27ZM1754.15,361.22c3.69,0,8.24,1.14,11.93,1.14h36.07c.57,0,1.14.28,1.14,1.14s-.57,1.14-1.14,1.14h-36.07c-3.69,0-8.24,1.14-11.93,1.14-2.27,0-3.98-.85-3.98-2.27s1.7-2.27,3.98-2.27ZM1754.15,370.59c3.69,0,8.24,1.14,11.93,1.14h36.07c.57,0,1.14.28,1.14,1.14s-.57,1.14-1.14,1.14h-36.07c-3.69,0-8.24,1.14-11.93,1.14-2.27,0-3.98-.85-3.98-2.27s1.7-2.27,3.98-2.27ZM1754.15,379.96c3.69,0,8.24,1.14,11.93,1.14h36.07c.57,0,1.14.28,1.14,1.14s-.57,1.14-1.14,1.14h-36.07c-3.69,0-8.24,1.14-11.93,1.14-2.27,0-3.98-.85-3.98-2.27s1.7-2.27,3.98-2.27ZM1754.15,389.33c3.69,0,8.24,1.14,11.93,1.14h136.32c.57,0,1.14.28,1.14,1.14s-.57,1.14-1.14,1.14h-136.32c-3.69,0-8.24,1.14-11.93,1.14-2.27,0-3.98-.85-3.98-2.27s1.7-2.27,3.98-2.27ZM1754.15,398.7c3.69,0,8.24,1.14,11.93,1.14h136.32c.57,0,1.14.28,1.14,1.14s-.57,1.14-1.14,1.14h-136.32c-3.69,0-8.24,1.14-11.93,1.14-2.27,0-3.98-.85-3.98-2.27s1.7-2.27,3.98-2.27ZM1754.15,408.08c3.69,0,8.24,1.14,11.93,1.14h136.32c.57,0,1.14.28,1.14,1.14s-.57,1.14-1.14,1.14h-136.32c-3.69,0-8.24,1.14-11.93,1.14-2.27,0-3.98-.85-3.98-2.27s1.7-2.27,3.98-2.27ZM1754.15,417.45c3.69,0,8.24,1.14,11.93,1.14h136.32c.57,0,1.14.28,1.14,1.14s-.57,1.14-1.14,1.14h-136.32c-3.69,0-8.24,1.14-11.93,1.14-2.27,0-3.98-.85-3.98-2.27s1.7-2.27,3.98-2.27ZM1754.15,426.82c3.69,0,8.24,1.14,11.93,1.14h136.32c.57,0,1.14.28,1.14,1.14s-.57,1.14-1.14,1.14h-136.32c-3.69,0-8.24,1.14-11.93,1.14-2.27,0-3.98-.85-3.98-2.27s1.7-2.27,3.98-2.27ZM1754.15,436.19c3.69,0,8.24,1.14,11.93,1.14h36.07c.57,0,1.14.28,1.14,1.14s-.57,1.14-1.14,1.14h-36.07c-3.69,0-8.24,1.14-11.93,1.14-2.27,0-3.98-.85-3.98-2.27s1.7-2.27,3.98-2.27ZM1754.15,445.56c3.69,0,8.24,1.14,11.93,1.14h36.07c.57,0,1.14.28,1.14,1.14s-.57,1.14-1.14,1.14h-36.07c-3.69,0-8.24,1.14-11.93,1.14-2.27,0-3.98-.85-3.98-2.27s1.7-2.27,3.98-2.27ZM1754.15,454.94c3.69,0,8.24,1.14,11.93,1.14h36.07c.57,0,1.14.28,1.14,1.14s-.57,1.14-1.14,1.14h-36.07c-3.69,0-8.24,1.14-11.93,1.14-2.27,0-3.98-.85-3.98-2.27s1.7-2.27,3.98-2.27ZM1754.15,464.31c3.69,0,8.24,1.14,11.93,1.14h36.07c.57,0,1.14.28,1.14,1.14s-.57,1.14-1.14,1.14h-36.07c-3.69,0-8.24,1.14-11.93,1.14-2.27,0-3.98-.85-3.98-2.27s1.7-2.27,3.98-2.27ZM1754.15,473.68c3.69,0,8.24,1.14,11.93,1.14h36.07c.57,0,1.14.28,1.14,1.14s-.57,1.14-1.14,1.14h-36.07c-3.69,0-8.24,1.14-11.93,1.14-2.27,0-3.98-.85-3.98-2.27s1.7-2.27,3.98-2.27ZM1854.41,342.47c3.69,0,8.24,1.14,11.93,1.14h36.07c.57,0,1.14.28,1.14,1.14s-.57,1.14-1.14,1.14h-36.07c-3.69,0-8.24,1.14-11.93,1.14-2.27,0-3.98-.85-3.98-2.27s1.7-2.27,3.98-2.27ZM1854.41,351.84c3.69,0,8.24,1.14,11.93,1.14h36.07c.57,0,1.14.28,1.14,1.14s-.57,1.14-1.14,1.14h-36.07c-3.69,0-8.24,1.14-11.93,1.14-2.27,0-3.98-.85-3.98-2.27s1.7-2.27,3.98-2.27ZM1854.41,361.22c3.69,0,8.24,1.14,11.93,1.14h36.07c.57,0,1.14.28,1.14,1.14s-.57,1.14-1.14,1.14h-36.07c-3.69,0-8.24,1.14-11.93,1.14-2.27,0-3.98-.85-3.98-2.27s1.7-2.27,3.98-2.27ZM1854.41,370.59c3.69,0,8.24,1.14,11.93,1.14h36.07c.57,0,1.14.28,1.14,1.14s-.57,1.14-1.14,1.14h-36.07c-3.69,0-8.24,1.14-11.93,1.14-2.27,0-3.98-.85-3.98-2.27s1.7-2.27,3.98-2.27ZM1854.41,379.96c3.69,0,8.24,1.14,11.93,1.14h36.07c.57,0,1.14.28,1.14,1.14s-.57,1.14-1.14,1.14h-36.07c-3.69,0-8.24,1.14-11.93,1.14-2.27,0-3.98-.85-3.98-2.27s1.7-2.27,3.98-2.27ZM1854.41,436.19c3.69,0,8.24,1.14,11.93,1.14h36.07c.57,0,1.14.28,1.14,1.14s-.57,1.14-1.14,1.14h-36.07c-3.69,0-8.24,1.14-11.93,1.14-2.27,0-3.98-.85-3.98-2.27s1.7-2.27,3.98-2.27ZM1854.41,445.56c3.69,0,8.24,1.14,11.93,1.14h36.07c.57,0,1.14.28,1.14,1.14s-.57,1.14-1.14,1.14h-36.07c-3.69,0-8.24,1.14-11.93,1.14-2.27,0-3.98-.85-3.98-2.27s1.7-2.27,3.98-2.27ZM1854.41,454.94c3.69,0,8.24,1.14,11.93,1.14h36.07c.57,0,1.14.28,1.14,1.14s-.57,1.14-1.14,1.14h-36.07c-3.69,0-8.24,1.14-11.93,1.14-2.27,0-3.98-.85-3.98-2.27s1.7-2.27,3.98-2.27ZM1854.41,464.31c3.69,0,8.24,1.14,11.93,1.14h36.07c.57,0,1.14.28,1.14,1.14s-.57,1.14-1.14,1.14h-36.07c-3.69,0-8.24,1.14-11.93,1.14-2.27,0-3.98-.85-3.98-2.27s1.7-2.27,3.98-2.27ZM1854.41,473.68c3.69,0,8.24,1.14,11.93,1.14h36.07c.57,0,1.14.28,1.14,1.14s-.57,1.14-1.14,1.14h-36.07c-3.69,0-8.24,1.14-11.93,1.14-2.27,0-3.98-.85-3.98-2.27s1.7-2.27,3.98-2.27Z"/>
  </g>
  <g>
    <g>
      <path class="cls-2" d="M1093.2,321.87c3.69,0,8.24,1.14,11.93,1.14h39.46c.57,0,1.14.28,1.14,1.14s-.57,1.14-1.14,1.14h-39.46c-3.69,0-8.24,1.14-11.93,1.14-2.27,0-3.98-.85-3.98-2.27s1.7-2.27,3.98-2.27Z"/>
      <path class="cls-2" d="M796.37,321.54c3.69,0,8.24,1.14,11.93,1.14h271.63c.57,0,1.14.28,1.14,1.14s-.57,1.14-1.14,1.14h-271.63c-3.69,0-8.24,1.14-11.93,1.14-2.27,0-3.98-.85-3.98-2.27s1.7-2.27,3.98-2.27Z"/>
    </g>
    <path class="cls-2" d="M1093.2,312.8c3.69,0,8.24,1.14,11.93,1.14h32.18c.57,0,1.14.28,1.14,1.14s-.57,1.14-1.14,1.14h-32.18c-3.69,0-8.24,1.14-11.93,1.14-2.27,0-3.98-.85-3.98-2.27s1.7-2.27,3.98-2.27Z"/>
    <path class="cls-2" d="M803.85,312.48c3.69,0,8.24,1.14,11.93,1.14h262.8c.57,0,1.14.28,1.14,1.14s-.57,1.14-1.14,1.14h-262.8c-3.69,0-8.24,1.14-11.93,1.14-2.27,0-3.98-.85-3.98-2.27s1.7-2.27,3.98-2.27Z"/>
    <path class="cls-2" d="M1141.52,305.52c0,.63-.51,1.14-1.14,1.14h-40.39c-3.69,0-8.24,1.14-11.93,1.14-2.27,0-3.98-.85-3.98-2.27s1.7-2.27,3.98-2.27c3.69,0,8.24,1.14,11.93,1.14h40.39c.63,0,1.14.51,1.14,1.14h0Z"/>
    <path class="cls-2" d="M812.44,302.93c3.69,0,8.24,1.14,11.93,1.14h248.39c.57,0,1.14.28,1.14,1.14s-.57,1.14-1.14,1.14h-248.39c-3.69,0-8.24,1.14-11.93,1.14-2.27,0-3.98-.85-3.98-2.27s1.7-2.27,3.98-2.27Z"/>
    <path class="cls-2" d="M1146.3,296.01c0,.63-.51,1.14-1.14,1.14h-51.54c-3.69,0-8.24,1.14-11.93,1.14-2.27,0-3.98-.85-3.98-2.27s1.7-2.27,3.98-2.27c3.69,0,8.24,1.14,11.93,1.14h51.54c.63,0,1.14.51,1.14,1.14h0Z"/>
    <path class="cls-2" d="M827.75,293.41c3.69,0,8.24,1.14,11.93,1.14h227.47c.57,0,1.14.28,1.14,1.14s-.57,1.14-1.14,1.14h-227.47c-3.69,0-8.24,1.14-11.93,1.14-2.27,0-3.98-.85-3.98-2.27s1.7-2.27,3.98-2.27Z"/>
    <path class="cls-2" d="M1137.68,286.74c0,.63-.51,1.14-1.14,1.14h-36.91c-3.69,0-8.24,1.14-11.93,1.14-2.27,0-3.98-.85-3.98-2.27s1.7-2.27,3.98-2.27c3.69,0,8.24,1.14,11.93,1.14h36.91c.63,0,1.14.51,1.14,1.14h0Z"/>
    <path class="cls-2" d="M842.17,284.14c3.69,0,8.24,1.14,11.93,1.14h217.28c.57,0,1.14.28,1.14,1.14s-.57,1.14-1.14,1.14h-217.28c-3.69,0-8.24,1.14-11.93,1.14-2.27,0-3.98-.85-3.98-2.27s1.7-2.27,3.98-2.27Z"/>
    <path class="cls-2" d="M1124.38,277.37c0,.63-.51,1.14-1.14,1.14h-14.25c-3.69,0-8.24,1.14-11.93,1.14-2.27,0-3.98-.85-3.98-2.27s1.7-2.27,3.98-2.27c3.69,0,8.24,1.14,11.93,1.14h14.25c.63,0,1.14.51,1.14,1.14h0Z"/>
    <path class="cls-2" d="M853.32,274.78c3.69,0,8.24,1.14,11.93,1.14h215.49c.57,0,1.14.28,1.14,1.14s-.57,1.14-1.14,1.14h-215.49c-3.69,0-8.24,1.14-11.93,1.14-2.27,0-3.98-.85-3.98-2.27s1.7-2.27,3.98-2.27Z"/>
    <path class="cls-2" d="M1111.25,268.05c0,.63-.51,1.14-1.14,1.14h-7.03c-1.24,0-1.3-2.27,0-2.27h7.03c.63,0,1.14.51,1.14,1.14h0Z"/>
    <path class="cls-2" d="M867.35,265.46c3.69,0,8.24,1.14,11.93,1.14h210.43c.57,0,1.14.28,1.14,1.14s-.57,1.14-1.14,1.14h-210.43c-3.69,0-8.24,1.14-11.93,1.14-2.27,0-3.98-.85-3.98-2.27s1.7-2.27,3.98-2.27Z"/>
    <path class="cls-2" d="M1135.47,258.7c0,.63-.51,1.14-1.14,1.14h-9.26c-3.69,0-8.24,1.14-11.93,1.14-2.27,0-3.98-.85-3.98-2.27s1.7-2.27,3.98-2.27c3.69,0,8.24,1.14,11.93,1.14h9.26c.63,0,1.14.51,1.14,1.14h0Z"/>
    <path class="cls-2" d="M887.36,256.1c3.69,0,8.24,1.14,11.93,1.14h196.02c.57,0,1.14.28,1.14,1.14s-.57,1.14-1.14,1.14h-196.02c-3.69,0-8.24,1.14-11.93,1.14-2.27,0-3.98-.85-3.98-2.27s1.7-2.27,3.98-2.27Z"/>
    <path class="cls-1" d="M1131.54,268.05c0,.63-.48,1.14-1.06,1.14h-6.58c-1.16,0-1.21-2.27,0-2.27h6.58c.59,0,1.06.51,1.06,1.14h0Z"/>
    <path class="cls-2" d="M1137.93,249.26c0,.63-.51,1.14-1.14,1.14h-24.27c-3.69,0-8.24,1.14-11.93,1.14-2.27,0-3.98-.85-3.98-2.27s1.7-2.27,3.98-2.27c3.69,0,8.24,1.14,11.93,1.14h24.27c.63,0,1.14.51,1.14,1.14h0Z"/>
    <path class="cls-2" d="M898.3,246.66c3.69,0,8.24,1.14,11.93,1.14h171.74c.57,0,1.14.28,1.14,1.14s-.57,1.14-1.14,1.14h-171.74c-3.69,0-8.24,1.14-11.93,1.14-2.27,0-3.98-.85-3.98-2.27s1.7-2.27,3.98-2.27Z"/>
    <path class="cls-2" d="M1140.57,239.93c0,.63-.51,1.14-1.14,1.14h-39.91c-3.69,0-8.24,1.14-11.93,1.14-2.27,0-3.98-.85-3.98-2.27s1.7-2.27,3.98-2.27c3.69,0,8.24,1.14,11.93,1.14h39.91c.63,0,1.14.51,1.14,1.14h0Z"/>
    <path class="cls-2" d="M903.56,237.33c3.69,0,8.24,1.14,11.93,1.14h153.19c.57,0,1.14.28,1.14,1.14s-.57,1.14-1.14,1.14h-153.19c-3.69,0-8.24,1.14-11.93,1.14-2.27,0-3.98-.85-3.98-2.27s1.7-2.27,3.98-2.27Z"/>
    <path class="cls-2" d="M1143.48,230.58c0,.63-.51,1.14-1.14,1.14h-56.06c-3.69,0-8.24,1.14-11.93,1.14-2.27,0-3.98-.85-3.98-2.27s1.7-2.27,3.98-2.27c3.69,0,8.24,1.14,11.93,1.14h56.06c.63,0,1.14.51,1.14,1.14h0Z"/>
    <path class="cls-2" d="M907.79,227.98c3.69,0,8.24,1.14,11.93,1.14h135.71c.57,0,1.14.28,1.14,1.14s-.57,1.14-1.14,1.14h-135.71c-3.69,0-8.24,1.14-11.93,1.14-2.27,0-3.98-.85-3.98-2.27s1.7-2.27,3.98-2.27Z"/>
    <path class="cls-2" d="M1135.47,220.8c0,.63-.51,1.14-1.14,1.14h-62.25c-3.69,0-8.24,1.14-11.93,1.14-2.27,0-3.98-.85-3.98-2.27s1.7-2.27,3.98-2.27c3.69,0,8.24,1.14,11.93,1.14h62.25c.63,0,1.14.51,1.14,1.14h0Z"/>
    <path class="cls-2" d="M907.79,218.55c3.69,0,8.24,1.14,11.93,1.14h122.54c.57,0,1.14.28,1.14,1.14s-.57,1.14-1.14,1.14h-122.54c-3.69,0-8.24,1.14-11.93,1.14-2.27,0-3.98-.85-3.98-2.27s1.7-2.27,3.98-2.27Z"/>
    <path class="cls-2" d="M1094.09,211.5c0,.63-.51,1.14-1.14,1.14h-34.29c-3.69,0-8.24,1.14-11.93,1.14-2.27,0-3.98-.85-3.98-2.27s1.7-2.27,3.98-2.27c3.69,0,8.24,1.14,11.93,1.14h34.29c.63,0,1.14.51,1.14,1.14h0Z"/>
    <path class="cls-2" d="M907.79,209.23c3.69,0,8.24,1.14,11.93,1.14h109.01c.57,0,1.14.28,1.14,1.14s-.57,1.14-1.14,1.14h-109.01c-3.69,0-8.24,1.14-11.93,1.14-2.27,0-3.98-.85-3.98-2.27s1.7-2.27,3.98-2.27Z"/>
    <path class="cls-2" d="M1089.59,202.13c0,.63-.51,1.14-1.14,1.14h-42.93c-3.69,0-8.24,1.14-11.93,1.14-2.27,0-3.98-.85-3.98-2.27s1.7-2.27,3.98-2.27c3.69,0,8.24,1.14,11.93,1.14h42.93c.63,0,1.14.51,1.14,1.14h0Z"/>
    <path class="cls-2" d="M907.79,199.85c3.69,0,8.24,1.14,11.93,1.14h95.87c.57,0,1.14.28,1.14,1.14s-.57,1.14-1.14,1.14h-95.87c-3.69,0-8.24,1.14-11.93,1.14-2.27,0-3.98-.85-3.98-2.27s1.7-2.27,3.98-2.27Z"/>
    <path class="cls-2" d="M1076.69,192.76c0,.63-.51,1.14-1.14,1.14h-42.93c-3.69,0-8.24,1.14-11.93,1.14-2.27,0-3.98-.85-3.98-2.27s1.7-2.27,3.98-2.27c3.69,0,8.24,1.14,11.93,1.14h42.93c.63,0,1.14.51,1.14,1.14h0Z"/>
    <path class="cls-2" d="M907.79,190.48c3.69,0,8.24,1.14,11.93,1.14h82.97c.57,0,1.14.28,1.14,1.14s-.57,1.14-1.14,1.14h-82.97c-3.69,0-8.24,1.14-11.93,1.14-2.27,0-3.98-.85-3.98-2.27s1.7-2.27,3.98-2.27Z"/>
    <path class="cls-2" d="M1035.26,183.38c0,.63-.51,1.14-1.14,1.14h-14.54c-3.69,0-8.24,1.14-11.93,1.14-2.27,0-3.98-.85-3.98-2.27s1.7-2.27,3.98-2.27c3.69,0,8.24,1.14,11.93,1.14h14.54c.63,0,1.14.51,1.14,1.14h0Z"/>
    <path class="cls-2" d="M907.79,181.11c3.69,0,8.24,1.14,11.93,1.14h69.93c.57,0,1.14.28,1.14,1.14s-.57,1.14-1.14,1.14h-69.93c-3.69,0-8.24,1.14-11.93,1.14-2.27,0-3.98-.85-3.98-2.27s1.7-2.27,3.98-2.27Z"/>
    <path class="cls-2" d="M1204.64,220.8c0,.63-.51,1.14-1.14,1.14h-33.48c-3.69,0-8.24,1.14-11.93,1.14-2.27,0-3.98-.85-3.98-2.27s1.7-2.27,3.98-2.27c3.69,0,8.24,1.14,11.93,1.14h33.48c.63,0,1.14.51,1.14,1.14h0Z"/>
    <path class="cls-1" d="M1200.35,230.61c0,.63-.48,1.14-1.06,1.14h-6.58c-1.16,0-1.21-2.27,0-2.27h6.58c.59,0,1.06.51,1.06,1.14h0Z"/>
    <path class="cls-2" d="M1198.86,211.5c0,.63-.51,1.14-1.14,1.14h-49.97c-3.69,0-8.24,1.14-11.93,1.14-2.27,0-3.98-.85-3.98-2.27s1.7-2.27,3.98-2.27c3.69,0,8.24,1.14,11.93,1.14h49.97c.63,0,1.14.51,1.14,1.14h0Z"/>
    <path class="cls-2" d="M1189.86,202.13c0,.63-.51,1.14-1.14,1.14h-61.57c-3.69,0-8.24,1.14-11.93,1.14-2.27,0-3.98-.85-3.98-2.27s1.7-2.27,3.98-2.27c3.69,0,8.24,1.14,11.93,1.14h61.57c.63,0,1.14.51,1.14,1.14h0Z"/>
    <path class="cls-2" d="M1178.98,192.76c0,.63-.51,1.14-1.14,1.14h-69.6c-3.69,0-8.24,1.14-11.93,1.14-2.27,0-3.98-.85-3.98-2.27s1.7-2.27,3.98-2.27c3.69,0,8.24,1.14,11.93,1.14h69.6c.63,0,1.14.51,1.14,1.14h0Z"/>
    <path class="cls-2" d="M1168.1,183.38c0,.63-.51,1.14-1.14,1.14h-76.76c-3.69,0-8.24,1.14-11.93,1.14-2.27,0-3.98-.85-3.98-2.27s1.7-2.27,3.98-2.27c3.69,0,8.24,1.14,11.93,1.14h76.76c.63,0,1.14.51,1.14,1.14h0Z"/>
    <path class="cls-2" d="M1029.84,174.05c0,.63-.51,1.14-1.14,1.14h-22.02c-3.69,0-8.24,1.14-11.93,1.14-2.27,0-3.98-.85-3.98-2.27s1.7-2.27,3.98-2.27c3.69,0,8.24,1.14,11.93,1.14h22.02c.63,0,1.14.51,1.14,1.14h0Z"/>
    <path class="cls-2" d="M908.15,171.78c3.69,0,8.24,1.14,11.93,1.14h55.97c.57,0,1.14.28,1.14,1.14s-.57,1.14-1.14,1.14h-55.97c-3.69,0-8.24,1.14-11.93,1.14-2.27,0-3.98-.85-3.98-2.27s1.7-2.27,3.98-2.27Z"/>
    <path class="cls-2" d="M1162.83,174.05c0,.63-.51,1.14-1.14,1.14h-88.26c-3.69,0-8.24,1.14-11.93,1.14-2.27,0-3.98-.85-3.98-2.27s1.7-2.27,3.98-2.27c3.69,0,8.24,1.14,11.93,1.14h88.26c.63,0,1.14.51,1.14,1.14h0Z"/>
    <path class="cls-2" d="M1026.82,164.57c0,.63-.51,1.14-1.14,1.14h-32.21c-3.69,0-8.24,1.14-11.93,1.14-2.27,0-3.98-.85-3.98-2.27s1.7-2.27,3.98-2.27c3.69,0,8.24,1.14,11.93,1.14h32.21c.63,0,1.14.51,1.14,1.14h0Z"/>
    <path class="cls-2" d="M908.15,162.3c3.69,0,8.24,1.14,11.93,1.14h42.41c.57,0,1.14.28,1.14,1.14s-.57,1.14-1.14,1.14h-42.41c-3.69,0-8.24,1.14-11.93,1.14-2.27,0-3.98-.85-3.98-2.27s1.7-2.27,3.98-2.27Z"/>
    <path class="cls-2" d="M1165.35,164.57c0,.63-.51,1.14-1.14,1.14h-108.97c-3.69,0-8.24,1.14-11.93,1.14-2.27,0-3.98-.85-3.98-2.27s1.7-2.27,3.98-2.27c3.69,0,8.24,1.14,11.93,1.14h108.97c.63,0,1.14.51,1.14,1.14h0Z"/>
    <path class="cls-2" d="M1013.31,155.27c0,.63-.51,1.14-1.14,1.14h-32.21c-3.69,0-8.24,1.14-11.93,1.14-2.27,0-3.98-.85-3.98-2.27s1.7-2.27,3.98-2.27c3.69,0,8.24,1.14,11.93,1.14h32.21c.63,0,1.14.51,1.14,1.14h0Z"/>
    <path class="cls-2" d="M908.15,153c3.69,0,8.24,1.14,11.93,1.14h29.41c.57,0,1.14.28,1.14,1.14s-.57,1.14-1.14,1.14h-29.41c-3.69,0-8.24,1.14-11.93,1.14-2.27,0-3.98-.85-3.98-2.27s1.7-2.27,3.98-2.27Z"/>
    <path class="cls-2" d="M1168.1,155.27c0,.63-.51,1.14-1.14,1.14h-125.79c-3.69,0-8.24,1.14-11.93,1.14-2.27,0-3.98-.85-3.98-2.27s1.7-2.27,3.98-2.27c3.69,0,8.24,1.14,11.93,1.14h125.79c.63,0,1.14.51,1.14,1.14h0Z"/>
    <path class="cls-2" d="M999.67,145.9c0,.63-.51,1.14-1.14,1.14h-12.02c-3.69,0-8.24,1.14-11.93,1.14-2.27,0-3.98-.85-3.98-2.27s1.7-2.27,3.98-2.27c3.69,0,8.24,1.14,11.93,1.14h12.02c.63,0,1.14.51,1.14,1.14h0Z"/>
    <path class="cls-2" d="M909.27,143.63c3.69,0,8.24,1.14,11.93,1.14h14.66c.57,0,1.14.28,1.14,1.14s-.57,1.14-1.14,1.14h-14.66c-3.69,0-8.24,1.14-11.93,1.14-2.27,0-3.98-.85-3.98-2.27s1.7-2.27,3.98-2.27Z"/>
    <path class="cls-2" d="M1170.63,145.9c0,.63-.51,1.14-1.14,1.14h-141.96c-3.69,0-8.24,1.14-11.93,1.14-2.27,0-3.98-.85-3.98-2.27s1.7-2.27,3.98-2.27c3.69,0,8.24,1.14,11.93,1.14h141.96c.63,0,1.14.51,1.14,1.14h0Z"/>
    <path class="cls-2" d="M986.38,136.53c0,.63-.51,1.14-1.14,1.14h-2.52c-1.99,0-1.96-2.27,0-2.27h2.52c.63,0,1.14.51,1.14,1.14h0Z"/>
    <path class="cls-2" d="M1173.66,136.52c0,.63-.51,1.14-1.14,1.14h-158.28c-3.69,0-8.24,1.14-11.93,1.14-2.27,0-3.98-.85-3.98-2.27s1.7-2.27,3.98-2.27c3.69,0,8.24,1.14,11.93,1.14h158.28c.63,0,1.14.51,1.14,1.14h0Z"/>
    <path class="cls-2" d="M923.72,136.53c0,.63-.51,1.14-1.14,1.14h-13.22c-1.99,0-1.96-2.27,0-2.27h13.22c.63,0,1.14.51,1.14,1.14h0Z"/>
    <path class="cls-2" d="M913.25,127.15c0,.63-.51,1.14-1.14,1.14h-.84c-1.99,0-1.96-2.27,0-2.27h.84c.63,0,1.14.51,1.14,1.14h0Z"/>
    <path class="cls-2" d="M1176.41,127.15c0,.63-.51,1.14-1.14,1.14h-174.23c-3.69,0-8.24,1.14-11.93,1.14-2.27,0-3.98-.85-3.98-2.27s1.7-2.27,3.98-2.27c3.69,0,8.24,1.14,11.93,1.14h174.23c.63,0,1.14.51,1.14,1.14h0Z"/>
    <path class="cls-2" d="M1179.41,117.78c0,.63-.51,1.14-1.14,1.14h-189.7c-3.69,0-8.24,1.14-11.93,1.14-2.27,0-3.98-.85-3.98-2.27s1.7-2.27,3.98-2.27c3.69,0,8.24,1.14,11.93,1.14h189.7c.63,0,1.14.51,1.14,1.14h0Z"/>
    <path class="cls-2" d="M1182.28,108.41c0,.63-.51,1.14-1.14,1.14h-203.39c-3.69,0-8.24,1.14-11.93,1.14-2.27,0-3.98-.85-3.98-2.27s1.7-2.27,3.98-2.27c3.69,0,8.24,1.14,11.93,1.14h203.39c.63,0,1.14.51,1.14,1.14h0Z"/>
    <path class="cls-2" d="M1185.11,99.04c0,.63-.51,1.14-1.14,1.14h-216.88c-3.69,0-8.24,1.14-11.93,1.14-2.27,0-3.98-.85-3.98-2.27s1.7-2.27,3.98-2.27c3.69,0,8.24,1.14,11.93,1.14h216.88c.63,0,1.14.51,1.14,1.14h0Z"/>
    <path class="cls-2" d="M1186.82,89.67c0,.63-.51,1.14-1.14,1.14h-226.32c-3.69,0-8.24,1.14-11.93,1.14-2.27,0-3.98-.85-3.98-2.27s1.7-2.27,3.98-2.27c3.69,0,8.24,1.14,11.93,1.14h226.32c.63,0,1.14.51,1.14,1.14h0Z"/>
    <path class="cls-2" d="M981.32,80.27c0,.63-.51,1.14-1.14,1.14h-24.37c-3.69,0-8.24,1.14-11.93,1.14-2.27,0-3.98-.85-3.98-2.27s1.7-2.27,3.98-2.27c3.69,0,8.24,1.14,11.93,1.14h24.37c.63,0,1.14.51,1.14,1.14h0Z"/>
    <path class="cls-2" d="M1185.68,80.27c0,.63-.51,1.14-1.14,1.14h-155.48c-3.69,0-8.24,1.14-11.93,1.14-2.27,0-3.98-.85-3.98-2.27s1.7-2.27,3.98-2.27c3.69,0,8.24,1.14,11.93,1.14h155.48c.63,0,1.14.51,1.14,1.14h0Z"/>
    <path class="cls-2" d="M950.63,70.94c0,.63-.51,1.14-1.14,1.14h-3.71c-1.99,0-1.96-2.27,0-2.27h3.71c.63,0,1.14.51,1.14,1.14h0Z"/>
    <path class="cls-2" d="M1180.55,70.86c0,.63-.51,1.14-1.14,1.14h-139.21c-3.69,0-8.24,1.14-11.93,1.14-2.27,0-3.98-.85-3.98-2.27s1.7-2.27,3.98-2.27c3.69,0,8.24,1.14,11.93,1.14h139.21c.63,0,1.14.51,1.14,1.14h0Z"/>
    <path class="cls-2" d="M1156.35,61.55c0,.63-.51,1.14-1.14,1.14h-105.26c-3.69,0-8.24,1.14-11.93,1.14-2.27,0-3.98-.85-3.98-2.27s1.7-2.27,3.98-2.27c3.69,0,8.24,1.14,11.93,1.14h105.26c.63,0,1.14.51,1.14,1.14h0Z"/>
    <path class="cls-2" d="M1126.25,52.18c0,.63-.51,1.14-1.14,1.14h-62.37c-3.69,0-8.24,1.14-11.93,1.14-2.27,0-3.98-.85-3.98-2.27s1.7-2.27,3.98-2.27c3.69,0,8.24,1.14,11.93,1.14h62.37c.63,0,1.14.51,1.14,1.14h0Z"/>
    <path class="cls-2" d="M1119.36,42.81c0,.63-.51,1.14-1.14,1.14h-44.25c-3.69,0-8.24,1.14-11.93,1.14-2.27,0-3.98-.85-3.98-2.27s1.7-2.27,3.98-2.27c3.69,0,8.24,1.14,11.93,1.14h44.25c.63,0,1.14.51,1.14,1.14h0Z"/>
    <path class="cls-2" d="M1112.49,33.44c0,.63-.51,1.14-1.14,1.14h-24.4c-3.69,0-8.24,1.14-11.93,1.14-2.27,0-3.98-.85-3.98-2.27s1.7-2.27,3.98-2.27c3.69,0,8.24,1.14,11.93,1.14h24.4c.63,0,1.14.51,1.14,1.14h0Z"/>
    <path class="cls-2" d="M1097.18,24c0,.63-.51,1.14-1.14,1.14h-3.71c-1.99,0-1.96-2.27,0-2.27h3.71c.63,0,1.14.51,1.14,1.14h0Z"/>
  </g>
</svg>