<?xml version="1.0" encoding="UTF-8"?>
<svg id="Layer_1" data-name="Layer 1" xmlns="http://www.w3.org/2000/svg" viewBox="0 0 2000 250">
  <defs>
    <style>
      .cls-1 {
        fill: #fff;
        stroke: #fff;
        stroke-miterlimit: 10;
      }
    </style>
  </defs>
  <path class="cls-1" d="M97.6,163.62c-.57,0-1.14-.28-1.14-1.14s.57-1.14,1.14-1.14h48.56c.57,0,1.14.28,1.14,1.14s-.57,1.14-1.14,1.14h-48.56ZM101.86,94.61c3.69,0,8.24,1.14,11.93,1.14h38.06c.57,0,1.14.28,1.14,1.14s-.57,1.14-1.14,1.14h-38.06c-3.69,0-8.24,1.14-11.93,1.14-2.27,0-3.98-.85-3.98-2.27s1.7-2.27,3.98-2.27ZM102.14,103.98c3.69,0,8.24,1.14,11.93,1.14h56.23c.57,0,1.14.28,1.14,1.14s-.57,1.14-1.14,1.14h-56.23c-3.69,0-8.24,1.14-11.93,1.14-2.27,0-3.98-.85-3.98-2.27s1.7-2.27,3.98-2.27ZM150.71,86.38c.57,0,1.14.28,1.14,1.14s-.57,1.14-1.14,1.14h-35.5c-3.69,0-8.24,1.14-11.93,1.14-2.27,0-3.98-.85-3.98-2.27s1.7-2.27,3.98-2.27c3.69,0,8.24,1.14,11.93,1.14h35.5ZM104.41,113.36c3.69,0,8.24,1.14,11.93,1.14h99.4c.57,0,1.14.28,1.14,1.14s-.57,1.14-1.14,1.14h-99.4c-3.69,0-8.24,1.14-11.93,1.14-2.27,0-3.98-.85-3.98-2.27s1.7-2.27,3.98-2.27ZM153.26,170.72c.57,0,1.14.28,1.14,1.14s-.57,1.14-1.14,1.14h-36.92c-3.69,0-8.24,1.14-11.93,1.14-2.27,0-3.98-.85-3.98-2.27s1.7-2.27,3.98-2.27c3.69,0,8.24,1.14,11.93,1.14h36.92ZM233.63,77c.57,0,1.14.28,1.14,1.14s-.57,1.14-1.14,1.14h-114.17c-3.69,0-8.24,1.14-11.93,1.14-2.27,0-3.98-.85-3.98-2.27s1.7-2.27,3.98-2.27c3.69,0,8.24,1.14,11.93,1.14h114.17ZM110.66,122.73c3.69,0,8.24,1.14,11.93,1.14h108.49c.57,0,1.14.28,1.14,1.14s-.57,1.14-1.14,1.14h-108.49c-3.69,0-8.24,1.14-11.93,1.14-2.27,0-3.98-.85-3.98-2.27s1.7-2.27,3.98-2.27ZM227.95,180.1c.57,0,1.14.28,1.14,1.14s-.57,1.14-1.14,1.14h-104.51c-3.69,0-8.24,1.14-11.93,1.14-2.27,0-3.98-.85-3.98-2.27s1.7-2.27,3.98-2.27c3.69,0,8.24,1.14,11.93,1.14h104.51ZM226.82,67.63c.57,0,1.14.28,1.14,1.14s-.57,1.14-1.14,1.14h-99.4c-3.69,0-8.24,1.14-11.93,1.14-2.27,0-3.98-.85-3.98-2.27s1.7-2.27,3.98-2.27c3.69,0,8.24,1.14,11.93,1.14h99.4ZM124.58,132.1c3.69,0,8.24,1.14,11.93,1.14h101.1c.57,0,1.14.28,1.14,1.14s-.57,1.14-1.14,1.14h-101.1c-3.69,0-8.24,1.14-11.93,1.14-2.27,0-3.98-.85-3.98-2.27s1.7-2.27,3.98-2.27ZM137.64,191.74c-3.69,0-8.24,1.14-11.93,1.14-2.27,0-3.98-.85-3.98-2.27s1.7-2.27,3.98-2.27c3.69,0,8.24,1.14,11.93,1.14h74.98c.57,0,1.14.28,1.14,1.14s-.57,1.14-1.14,1.14h-74.98ZM213.19,58.26c.57,0,1.14.28,1.14,1.14s-.57,1.14-1.14,1.14h-69.86c-3.69,0-8.24,1.14-11.93,1.14-2.27,0-3.98-.85-3.98-2.27s1.7-2.27,3.98-2.27c3.69,0,8.24,1.14,11.93,1.14h69.86ZM178.82,198.27c.57,0,1.14.28,1.14,1.14s-.57,1.14-1.14,1.14h-23.86c-.57,0-1.14-.28-1.14-1.14s.57-1.14,1.14-1.14h23.86ZM159.51,51.73c-.57,0-1.14-.28-1.14-1.14s.57-1.14,1.14-1.14h23.86c.57,0,1.14.28,1.14,1.14s-.57,1.14-1.14,1.14h-23.86ZM167.46,141.47c3.69,0,8.24,1.14,11.93,1.14h61.06c.57,0,1.14.28,1.14,1.14s-.57,1.14-1.14,1.14h-61.06c-3.69,0-8.24,1.14-11.93,1.14-2.27,0-3.98-.85-3.98-2.27s1.7-2.27,3.98-2.27ZM235.62,170.72c.57,0,1.14.28,1.14,1.14s-.57,1.14-1.14,1.14h-36.64c-3.69,0-8.24,1.14-11.93,1.14-2.27,0-3.98-.85-3.98-2.27s1.7-2.27,3.98-2.27c3.69,0,8.24,1.14,11.93,1.14h36.64ZM237.04,86.38c.57,0,1.14.28,1.14,1.14s-.57,1.14-1.14,1.14h-49.13c-.57,0-1.14-.28-1.14-1.14s.57-1.14,1.14-1.14h49.13ZM191.32,150.84c3.69,0,8.24,1.14,11.93,1.14h37.77c.57,0,1.14.28,1.14,1.14s-.57,1.14-1.14,1.14h-37.77c-3.69,0-8.24,1.14-11.93,1.14-2.27,0-3.98-.85-3.98-2.27s1.7-2.27,3.98-2.27ZM239.6,161.35c.57,0,1.14.28,1.14,1.14s-.57,1.14-1.14,1.14h-35.22c-3.69,0-8.24,1.14-11.93,1.14-2.27,0-3.98-.85-3.98-2.27s1.7-2.27,3.98-2.27c3.69,0,8.24,1.14,11.93,1.14h35.22Z"/>
  <path class="cls-1" d="M265.15,57.12c3.69,0,8.24,1.14,11.93,1.14h110.47c.57,0,1.14.28,1.14,1.14s-.57,1.14-1.14,1.14h-110.47c-3.69,0-8.24,1.14-11.93,1.14-2.27,0-3.98-.85-3.98-2.27s1.7-2.27,3.98-2.27ZM265.15,66.5c3.69,0,8.24,1.14,11.93,1.14h110.47c.57,0,1.14.28,1.14,1.14s-.57,1.14-1.14,1.14h-110.47c-3.69,0-8.24,1.14-11.93,1.14-2.27,0-3.98-.85-3.98-2.27s1.7-2.27,3.98-2.27ZM265.15,75.87c3.69,0,8.24,1.14,11.93,1.14h110.47c.57,0,1.14.28,1.14,1.14s-.57,1.14-1.14,1.14h-110.47c-3.69,0-8.24,1.14-11.93,1.14-2.27,0-3.98-.85-3.98-2.27s1.7-2.27,3.98-2.27ZM265.15,85.24c3.69,0,8.24,1.14,11.93,1.14h110.47c.57,0,1.14.28,1.14,1.14s-.57,1.14-1.14,1.14h-110.47c-3.69,0-8.24,1.14-11.93,1.14-2.27,0-3.98-.85-3.98-2.27s1.7-2.27,3.98-2.27ZM387.55,95.75c.57,0,1.14.28,1.14,1.14s-.57,1.14-1.14,1.14h-125.24c-.57,0-1.14-.28-1.14-1.14s.57-1.14,1.14-1.14h125.24ZM302.36,103.98c3.69,0,8.24,1.14,11.93,1.14h36.07c.57,0,1.14.28,1.14,1.14s-.57,1.14-1.14,1.14h-36.07c-3.69,0-8.24,1.14-11.93,1.14-2.27,0-3.98-.85-3.98-2.27s1.7-2.27,3.98-2.27ZM302.36,113.36c3.69,0,8.24,1.14,11.93,1.14h36.07c.57,0,1.14.28,1.14,1.14s-.57,1.14-1.14,1.14h-36.07c-3.69,0-8.24,1.14-11.93,1.14-2.27,0-3.98-.85-3.98-2.27s1.7-2.27,3.98-2.27ZM302.36,122.73c3.69,0,8.24,1.14,11.93,1.14h36.07c.57,0,1.14.28,1.14,1.14s-.57,1.14-1.14,1.14h-36.07c-3.69,0-8.24,1.14-11.93,1.14-2.27,0-3.98-.85-3.98-2.27s1.7-2.27,3.98-2.27ZM302.36,132.1c3.69,0,8.24,1.14,11.93,1.14h36.07c.57,0,1.14.28,1.14,1.14s-.57,1.14-1.14,1.14h-36.07c-3.69,0-8.24,1.14-11.93,1.14-2.27,0-3.98-.85-3.98-2.27s1.7-2.27,3.98-2.27ZM302.36,141.47c3.69,0,8.24,1.14,11.93,1.14h36.07c.57,0,1.14.28,1.14,1.14s-.57,1.14-1.14,1.14h-36.07c-3.69,0-8.24,1.14-11.93,1.14-2.27,0-3.98-.85-3.98-2.27s1.7-2.27,3.98-2.27ZM302.36,150.84c3.69,0,8.24,1.14,11.93,1.14h36.07c.57,0,1.14.28,1.14,1.14s-.57,1.14-1.14,1.14h-36.07c-3.69,0-8.24,1.14-11.93,1.14-2.27,0-3.98-.85-3.98-2.27s1.7-2.27,3.98-2.27ZM302.36,160.22c3.69,0,8.24,1.14,11.93,1.14h36.07c.57,0,1.14.28,1.14,1.14s-.57,1.14-1.14,1.14h-36.07c-3.69,0-8.24,1.14-11.93,1.14-2.27,0-3.98-.85-3.98-2.27s1.7-2.27,3.98-2.27ZM302.36,169.59c3.69,0,8.24,1.14,11.93,1.14h36.07c.57,0,1.14.28,1.14,1.14s-.57,1.14-1.14,1.14h-36.07c-3.69,0-8.24,1.14-11.93,1.14-2.27,0-3.98-.85-3.98-2.27s1.7-2.27,3.98-2.27ZM302.36,178.96c3.69,0,8.24,1.14,11.93,1.14h36.07c.57,0,1.14.28,1.14,1.14s-.57,1.14-1.14,1.14h-36.07c-3.69,0-8.24,1.14-11.93,1.14-2.27,0-3.98-.85-3.98-2.27s1.7-2.27,3.98-2.27ZM302.36,188.33c3.69,0,8.24,1.14,11.93,1.14h36.07c.57,0,1.14.28,1.14,1.14s-.57,1.14-1.14,1.14h-36.07c-3.69,0-8.24,1.14-11.93,1.14-2.27,0-3.98-.85-3.98-2.27s1.7-2.27,3.98-2.27Z"/>
  <path class="cls-1" d="M419.36,57.12c3.69,0,8.24,1.14,11.93,1.14h89.74c.57,0,1.14.28,1.14,1.14s-.57,1.14-1.14,1.14h-89.74c-3.69,0-8.24,1.14-11.93,1.14-2.27,0-3.98-.85-3.98-2.27s1.7-2.27,3.98-2.27ZM419.36,66.5c3.69,0,8.24,1.14,11.93,1.14h107.35c.57,0,1.14.28,1.14,1.14s-.57,1.14-1.14,1.14h-107.35c-3.69,0-8.24,1.14-11.93,1.14-2.27,0-3.98-.85-3.98-2.27s1.7-2.27,3.98-2.27ZM419.36,75.87c3.69,0,8.24,1.14,11.93,1.14h115.87c.57,0,1.14.28,1.14,1.14s-.57,1.14-1.14,1.14h-115.87c-3.69,0-8.24,1.14-11.93,1.14-2.27,0-3.98-.85-3.98-2.27s1.7-2.27,3.98-2.27ZM419.36,85.24c3.69,0,8.24,1.14,11.93,1.14h120.42c.57,0,1.14.28,1.14,1.14s-.57,1.14-1.14,1.14h-120.42c-3.69,0-8.24,1.14-11.93,1.14-2.27,0-3.98-.85-3.98-2.27s1.7-2.27,3.98-2.27ZM419.36,94.61c3.69,0,8.24,1.14,11.93,1.14h35.22c.57,0,1.14.28,1.14,1.14s-.57,1.14-1.14,1.14h-35.22c-3.69,0-8.24,1.14-11.93,1.14-2.27,0-3.98-.85-3.98-2.27s1.7-2.27,3.98-2.27ZM419.36,103.98c3.69,0,8.24,1.14,11.93,1.14h35.22c.57,0,1.14.28,1.14,1.14s-.57,1.14-1.14,1.14h-35.22c-3.69,0-8.24,1.14-11.93,1.14-2.27,0-3.98-.85-3.98-2.27s1.7-2.27,3.98-2.27ZM419.36,113.36c3.69,0,8.24,1.14,11.93,1.14h35.22c.57,0,1.14.28,1.14,1.14s-.57,1.14-1.14,1.14h-35.22c-3.69,0-8.24,1.14-11.93,1.14-2.27,0-3.98-.85-3.98-2.27s1.7-2.27,3.98-2.27ZM419.36,122.73c3.69,0,8.24,1.14,11.93,1.14h35.22c.57,0,1.14.28,1.14,1.14s-.57,1.14-1.14,1.14h-35.22c-3.69,0-8.24,1.14-11.93,1.14-2.27,0-3.98-.85-3.98-2.27s1.7-2.27,3.98-2.27ZM419.36,132.1c3.69,0,8.24,1.14,11.93,1.14h118.43c.57,0,1.14.28,1.14,1.14s-.57,1.14-1.14,1.14h-118.43c-3.69,0-8.24,1.14-11.93,1.14-2.27,0-3.98-.85-3.98-2.27s1.7-2.27,3.98-2.27ZM419.36,141.47c3.69,0,8.24,1.14,11.93,1.14h111.33c.57,0,1.14.28,1.14,1.14s-.57,1.14-1.14,1.14h-111.33c-3.69,0-8.24,1.14-11.93,1.14-2.27,0-3.98-.85-3.98-2.27s1.7-2.27,3.98-2.27ZM419.36,150.84c3.69,0,8.24,1.14,11.93,1.14h103.09c.57,0,1.14.28,1.14,1.14s-.57,1.14-1.14,1.14h-103.09c-3.69,0-8.24,1.14-11.93,1.14-2.27,0-3.98-.85-3.98-2.27s1.7-2.27,3.98-2.27ZM419.36,160.22c3.69,0,8.24,1.14,11.93,1.14h107.63c.57,0,1.14.28,1.14,1.14s-.57,1.14-1.14,1.14h-107.63c-3.69,0-8.24,1.14-11.93,1.14-2.27,0-3.98-.85-3.98-2.27s1.7-2.27,3.98-2.27ZM419.36,169.59c3.69,0,8.24,1.14,11.93,1.14h35.22c.57,0,1.14.28,1.14,1.14s-.57,1.14-1.14,1.14h-35.22c-3.69,0-8.24,1.14-11.93,1.14-2.27,0-3.98-.85-3.98-2.27s1.7-2.27,3.98-2.27ZM419.36,178.96c3.69,0,8.24,1.14,11.93,1.14h35.22c.57,0,1.14.28,1.14,1.14s-.57,1.14-1.14,1.14h-35.22c-3.69,0-8.24,1.14-11.93,1.14-2.27,0-3.98-.85-3.98-2.27s1.7-2.27,3.98-2.27ZM419.36,188.33c3.69,0,8.24,1.14,11.93,1.14h35.22c.57,0,1.14.28,1.14,1.14s-.57,1.14-1.14,1.14h-35.22c-3.69,0-8.24,1.14-11.93,1.14-2.27,0-3.98-.85-3.98-2.27s1.7-2.27,3.98-2.27ZM495.19,169.59c3.69,0,8.24,1.14,11.93,1.14h36.07c.57,0,1.14.28,1.14,1.14s-.57,1.14-1.14,1.14h-36.07c-3.69,0-8.24,1.14-11.93,1.14-2.27,0-3.98-.85-3.98-2.27s1.7-2.27,3.98-2.27ZM498.31,178.96c3.69,0,8.24,1.14,11.93,1.14h37.2c.57,0,1.14.28,1.14,1.14s-.57,1.14-1.14,1.14h-37.2c-3.69,0-8.24,1.14-11.93,1.14-2.27,0-3.98-.85-3.98-2.27s1.7-2.27,3.98-2.27ZM501.72,122.73c3.69,0,8.24,1.14,11.93,1.14h39.76c.57,0,1.14.28,1.14,1.14s-.57,1.14-1.14,1.14h-39.76c-3.69,0-8.24,1.14-11.93,1.14-2.27,0-3.98-.85-3.98-2.27s1.7-2.27,3.98-2.27ZM501.72,188.33c3.69,0,8.24,1.14,11.93,1.14h38.06c.57,0,1.14.28,1.14,1.14s-.57,1.14-1.14,1.14h-38.06c-3.69,0-8.24,1.14-11.93,1.14-2.27,0-3.98-.85-3.98-2.27s1.7-2.27,3.98-2.27ZM505.13,94.61c3.69,0,8.24,1.14,11.93,1.14h37.2c.57,0,1.14.28,1.14,1.14s-.57,1.14-1.14,1.14h-37.2c-3.69,0-8.24,1.14-11.93,1.14-2.27,0-3.98-.85-3.98-2.27s1.7-2.27,3.98-2.27ZM507.12,113.36c3.69,0,8.24,1.14,11.93,1.14h35.78c.57,0,1.14.28,1.14,1.14s-.57,1.14-1.14,1.14h-35.78c-3.69,0-8.24,1.14-11.93,1.14-2.27,0-3.98-.85-3.98-2.27s1.7-2.27,3.98-2.27ZM507.69,103.98c3.69,0,8.24,1.14,11.93,1.14h35.5c.57,0,1.14.28,1.14,1.14s-.57,1.14-1.14,1.14h-35.5c-3.69,0-8.24,1.14-11.93,1.14-2.27,0-3.98-.85-3.98-2.27s1.7-2.27,3.98-2.27Z"/>
  <path class="cls-1" d="M589.48,57.12c3.69,0,8.24,1.14,11.93,1.14h98.55c.57,0,1.14.28,1.14,1.14s-.57,1.14-1.14,1.14h-98.55c-3.69,0-8.24,1.14-11.93,1.14-2.27,0-3.98-.85-3.98-2.27s1.7-2.27,3.98-2.27ZM589.48,66.5c3.69,0,8.24,1.14,11.93,1.14h98.55c.57,0,1.14.28,1.14,1.14s-.57,1.14-1.14,1.14h-98.55c-3.69,0-8.24,1.14-11.93,1.14-2.27,0-3.98-.85-3.98-2.27s1.7-2.27,3.98-2.27ZM589.48,75.87c3.69,0,8.24,1.14,11.93,1.14h98.55c.57,0,1.14.28,1.14,1.14s-.57,1.14-1.14,1.14h-98.55c-3.69,0-8.24,1.14-11.93,1.14-2.27,0-3.98-.85-3.98-2.27s1.7-2.27,3.98-2.27ZM589.48,85.24c3.69,0,8.24,1.14,11.93,1.14h98.55c.57,0,1.14.28,1.14,1.14s-.57,1.14-1.14,1.14h-98.55c-3.69,0-8.24,1.14-11.93,1.14-2.27,0-3.98-.85-3.98-2.27s1.7-2.27,3.98-2.27ZM589.48,94.61c3.69,0,8.24,1.14,11.93,1.14h36.07c.57,0,1.14.28,1.14,1.14s-.57,1.14-1.14,1.14h-36.07c-3.69,0-8.24,1.14-11.93,1.14-2.27,0-3.98-.85-3.98-2.27s1.7-2.27,3.98-2.27ZM589.48,103.98c3.69,0,8.24,1.14,11.93,1.14h36.07c.57,0,1.14.28,1.14,1.14s-.57,1.14-1.14,1.14h-36.07c-3.69,0-8.24,1.14-11.93,1.14-2.27,0-3.98-.85-3.98-2.27s1.7-2.27,3.98-2.27ZM589.48,113.36c3.69,0,8.24,1.14,11.93,1.14h81.79c.57,0,1.14.28,1.14,1.14s-.57,1.14-1.14,1.14h-81.79c-3.69,0-8.24,1.14-11.93,1.14-2.27,0-3.98-.85-3.98-2.27s1.7-2.27,3.98-2.27ZM589.48,122.73c3.69,0,8.24,1.14,11.93,1.14h81.79c.57,0,1.14.28,1.14,1.14s-.57,1.14-1.14,1.14h-81.79c-3.69,0-8.24,1.14-11.93,1.14-2.27,0-3.98-.85-3.98-2.27s1.7-2.27,3.98-2.27ZM589.48,132.1c3.69,0,8.24,1.14,11.93,1.14h81.79c.57,0,1.14.28,1.14,1.14s-.57,1.14-1.14,1.14h-81.79c-3.69,0-8.24,1.14-11.93,1.14-2.27,0-3.98-.85-3.98-2.27s1.7-2.27,3.98-2.27ZM589.48,141.47c3.69,0,8.24,1.14,11.93,1.14h36.07c.57,0,1.14.28,1.14,1.14s-.57,1.14-1.14,1.14h-36.07c-3.69,0-8.24,1.14-11.93,1.14-2.27,0-3.98-.85-3.98-2.27s1.7-2.27,3.98-2.27ZM589.48,150.84c3.69,0,8.24,1.14,11.93,1.14h36.07c.57,0,1.14.28,1.14,1.14s-.57,1.14-1.14,1.14h-36.07c-3.69,0-8.24,1.14-11.93,1.14-2.27,0-3.98-.85-3.98-2.27s1.7-2.27,3.98-2.27ZM589.48,160.22c3.69,0,8.24,1.14,11.93,1.14h98.55c.57,0,1.14.28,1.14,1.14s-.57,1.14-1.14,1.14h-98.55c-3.69,0-8.24,1.14-11.93,1.14-2.27,0-3.98-.85-3.98-2.27s1.7-2.27,3.98-2.27ZM589.48,169.59c3.69,0,8.24,1.14,11.93,1.14h98.55c.57,0,1.14.28,1.14,1.14s-.57,1.14-1.14,1.14h-98.55c-3.69,0-8.24,1.14-11.93,1.14-2.27,0-3.98-.85-3.98-2.27s1.7-2.27,3.98-2.27ZM589.48,178.96c3.69,0,8.24,1.14,11.93,1.14h98.55c.57,0,1.14.28,1.14,1.14s-.57,1.14-1.14,1.14h-98.55c-3.69,0-8.24,1.14-11.93,1.14-2.27,0-3.98-.85-3.98-2.27s1.7-2.27,3.98-2.27ZM589.48,188.33c3.69,0,8.24,1.14,11.93,1.14h98.55c.57,0,1.14.28,1.14,1.14s-.57,1.14-1.14,1.14h-98.55c-3.69,0-8.24,1.14-11.93,1.14-2.27,0-3.98-.85-3.98-2.27s1.7-2.27,3.98-2.27Z"/>
  <path class="cls-1" d="M736.59,57.12c3.69,0,8.24,1.14,11.93,1.14h98.55c.57,0,1.14.28,1.14,1.14s-.57,1.14-1.14,1.14h-98.55c-3.69,0-8.24,1.14-11.93,1.14-2.27,0-3.98-.85-3.98-2.27s1.7-2.27,3.98-2.27ZM736.59,66.5c3.69,0,8.24,1.14,11.93,1.14h98.55c.57,0,1.14.28,1.14,1.14s-.57,1.14-1.14,1.14h-98.55c-3.69,0-8.24,1.14-11.93,1.14-2.27,0-3.98-.85-3.98-2.27s1.7-2.27,3.98-2.27ZM736.59,75.87c3.69,0,8.24,1.14,11.93,1.14h98.55c.57,0,1.14.28,1.14,1.14s-.57,1.14-1.14,1.14h-98.55c-3.69,0-8.24,1.14-11.93,1.14-2.27,0-3.98-.85-3.98-2.27s1.7-2.27,3.98-2.27ZM736.59,85.24c3.69,0,8.24,1.14,11.93,1.14h98.55c.57,0,1.14.28,1.14,1.14s-.57,1.14-1.14,1.14h-98.55c-3.69,0-8.24,1.14-11.93,1.14-2.27,0-3.98-.85-3.98-2.27s1.7-2.27,3.98-2.27ZM736.59,94.61c3.69,0,8.24,1.14,11.93,1.14h36.07c.57,0,1.14.28,1.14,1.14s-.57,1.14-1.14,1.14h-36.07c-3.69,0-8.24,1.14-11.93,1.14-2.27,0-3.98-.85-3.98-2.27s1.7-2.27,3.98-2.27ZM736.59,103.98c3.69,0,8.24,1.14,11.93,1.14h36.07c.57,0,1.14.28,1.14,1.14s-.57,1.14-1.14,1.14h-36.07c-3.69,0-8.24,1.14-11.93,1.14-2.27,0-3.98-.85-3.98-2.27s1.7-2.27,3.98-2.27ZM736.59,113.36c3.69,0,8.24,1.14,11.93,1.14h81.79c.57,0,1.14.28,1.14,1.14s-.57,1.14-1.14,1.14h-81.79c-3.69,0-8.24,1.14-11.93,1.14-2.27,0-3.98-.85-3.98-2.27s1.7-2.27,3.98-2.27ZM736.59,122.73c3.69,0,8.24,1.14,11.93,1.14h81.79c.57,0,1.14.28,1.14,1.14s-.57,1.14-1.14,1.14h-81.79c-3.69,0-8.24,1.14-11.93,1.14-2.27,0-3.98-.85-3.98-2.27s1.7-2.27,3.98-2.27ZM736.59,132.1c3.69,0,8.24,1.14,11.93,1.14h81.79c.57,0,1.14.28,1.14,1.14s-.57,1.14-1.14,1.14h-81.79c-3.69,0-8.24,1.14-11.93,1.14-2.27,0-3.98-.85-3.98-2.27s1.7-2.27,3.98-2.27ZM736.59,141.47c3.69,0,8.24,1.14,11.93,1.14h36.07c.57,0,1.14.28,1.14,1.14s-.57,1.14-1.14,1.14h-36.07c-3.69,0-8.24,1.14-11.93,1.14-2.27,0-3.98-.85-3.98-2.27s1.7-2.27,3.98-2.27ZM736.59,150.84c3.69,0,8.24,1.14,11.93,1.14h36.07c.57,0,1.14.28,1.14,1.14s-.57,1.14-1.14,1.14h-36.07c-3.69,0-8.24,1.14-11.93,1.14-2.27,0-3.98-.85-3.98-2.27s1.7-2.27,3.98-2.27ZM736.59,160.22c3.69,0,8.24,1.14,11.93,1.14h98.55c.57,0,1.14.28,1.14,1.14s-.57,1.14-1.14,1.14h-98.55c-3.69,0-8.24,1.14-11.93,1.14-2.27,0-3.98-.85-3.98-2.27s1.7-2.27,3.98-2.27ZM736.59,169.59c3.69,0,8.24,1.14,11.93,1.14h98.55c.57,0,1.14.28,1.14,1.14s-.57,1.14-1.14,1.14h-98.55c-3.69,0-8.24,1.14-11.93,1.14-2.27,0-3.98-.85-3.98-2.27s1.7-2.27,3.98-2.27ZM736.59,178.96c3.69,0,8.24,1.14,11.93,1.14h98.55c.57,0,1.14.28,1.14,1.14s-.57,1.14-1.14,1.14h-98.55c-3.69,0-8.24,1.14-11.93,1.14-2.27,0-3.98-.85-3.98-2.27s1.7-2.27,3.98-2.27ZM736.59,188.33c3.69,0,8.24,1.14,11.93,1.14h98.55c.57,0,1.14.28,1.14,1.14s-.57,1.14-1.14,1.14h-98.55c-3.69,0-8.24,1.14-11.93,1.14-2.27,0-3.98-.85-3.98-2.27s1.7-2.27,3.98-2.27Z"/>
  <path class="cls-1" d="M876.31,57.12c3.69,0,8.24,1.14,11.93,1.14h110.47c.57,0,1.14.28,1.14,1.14s-.57,1.14-1.14,1.14h-110.47c-3.69,0-8.24,1.14-11.93,1.14-2.27,0-3.98-.85-3.98-2.27s1.7-2.27,3.98-2.27ZM876.31,66.5c3.69,0,8.24,1.14,11.93,1.14h110.47c.57,0,1.14.28,1.14,1.14s-.57,1.14-1.14,1.14h-110.47c-3.69,0-8.24,1.14-11.93,1.14-2.27,0-3.98-.85-3.98-2.27s1.7-2.27,3.98-2.27ZM876.31,75.87c3.69,0,8.24,1.14,11.93,1.14h110.47c.57,0,1.14.28,1.14,1.14s-.57,1.14-1.14,1.14h-110.47c-3.69,0-8.24,1.14-11.93,1.14-2.27,0-3.98-.85-3.98-2.27s1.7-2.27,3.98-2.27ZM876.31,85.24c3.69,0,8.24,1.14,11.93,1.14h110.47c.57,0,1.14.28,1.14,1.14s-.57,1.14-1.14,1.14h-110.47c-3.69,0-8.24,1.14-11.93,1.14-2.27,0-3.98-.85-3.98-2.27s1.7-2.27,3.98-2.27ZM998.72,95.75c.57,0,1.14.28,1.14,1.14s-.57,1.14-1.14,1.14h-125.24c-.57,0-1.14-.28-1.14-1.14s.57-1.14,1.14-1.14h125.24ZM913.52,103.98c3.69,0,8.24,1.14,11.93,1.14h36.07c.57,0,1.14.28,1.14,1.14s-.57,1.14-1.14,1.14h-36.07c-3.69,0-8.24,1.14-11.93,1.14-2.27,0-3.98-.85-3.98-2.27s1.7-2.27,3.98-2.27ZM913.52,113.36c3.69,0,8.24,1.14,11.93,1.14h36.07c.57,0,1.14.28,1.14,1.14s-.57,1.14-1.14,1.14h-36.07c-3.69,0-8.24,1.14-11.93,1.14-2.27,0-3.98-.85-3.98-2.27s1.7-2.27,3.98-2.27ZM913.52,122.73c3.69,0,8.24,1.14,11.93,1.14h36.07c.57,0,1.14.28,1.14,1.14s-.57,1.14-1.14,1.14h-36.07c-3.69,0-8.24,1.14-11.93,1.14-2.27,0-3.98-.85-3.98-2.27s1.7-2.27,3.98-2.27ZM913.52,132.1c3.69,0,8.24,1.14,11.93,1.14h36.07c.57,0,1.14.28,1.14,1.14s-.57,1.14-1.14,1.14h-36.07c-3.69,0-8.24,1.14-11.93,1.14-2.27,0-3.98-.85-3.98-2.27s1.7-2.27,3.98-2.27ZM913.52,141.47c3.69,0,8.24,1.14,11.93,1.14h36.07c.57,0,1.14.28,1.14,1.14s-.57,1.14-1.14,1.14h-36.07c-3.69,0-8.24,1.14-11.93,1.14-2.27,0-3.98-.85-3.98-2.27s1.7-2.27,3.98-2.27ZM913.52,150.84c3.69,0,8.24,1.14,11.93,1.14h36.07c.57,0,1.14.28,1.14,1.14s-.57,1.14-1.14,1.14h-36.07c-3.69,0-8.24,1.14-11.93,1.14-2.27,0-3.98-.85-3.98-2.27s1.7-2.27,3.98-2.27ZM913.52,160.22c3.69,0,8.24,1.14,11.93,1.14h36.07c.57,0,1.14.28,1.14,1.14s-.57,1.14-1.14,1.14h-36.07c-3.69,0-8.24,1.14-11.93,1.14-2.27,0-3.98-.85-3.98-2.27s1.7-2.27,3.98-2.27ZM913.52,169.59c3.69,0,8.24,1.14,11.93,1.14h36.07c.57,0,1.14.28,1.14,1.14s-.57,1.14-1.14,1.14h-36.07c-3.69,0-8.24,1.14-11.93,1.14-2.27,0-3.98-.85-3.98-2.27s1.7-2.27,3.98-2.27ZM913.52,178.96c3.69,0,8.24,1.14,11.93,1.14h36.07c.57,0,1.14.28,1.14,1.14s-.57,1.14-1.14,1.14h-36.07c-3.69,0-8.24,1.14-11.93,1.14-2.27,0-3.98-.85-3.98-2.27s1.7-2.27,3.98-2.27ZM913.52,188.33c3.69,0,8.24,1.14,11.93,1.14h36.07c.57,0,1.14.28,1.14,1.14s-.57,1.14-1.14,1.14h-36.07c-3.69,0-8.24,1.14-11.93,1.14-2.27,0-3.98-.85-3.98-2.27s1.7-2.27,3.98-2.27Z"/>
  <path class="cls-1" d="M1025.41,57.12c3.69,0,8.24,1.14,11.93,1.14h29.54c.57,0,1.14.28,1.14,1.14s-.57,1.14-1.14,1.14h-29.54c-3.69,0-8.24,1.14-11.93,1.14-2.27,0-3.98-.85-3.98-2.27s1.7-2.27,3.98-2.27ZM1027.69,66.5c3.69,0,8.24,1.14,11.93,1.14h29.25c.57,0,1.14.28,1.14,1.14s-.57,1.14-1.14,1.14h-29.25c-3.69,0-8.24,1.14-11.93,1.14-2.27,0-3.98-.85-3.98-2.27s1.7-2.27,3.98-2.27ZM1029.96,75.87c3.69,0,8.24,1.14,11.93,1.14h28.68c.57,0,1.14.28,1.14,1.14s-.57,1.14-1.14,1.14h-28.68c-3.69,0-8.24,1.14-11.93,1.14-2.27,0-3.98-.85-3.98-2.27s1.7-2.27,3.98-2.27ZM1032.23,85.24c3.69,0,8.24,1.14,11.93,1.14h28.4c.57,0,1.14.28,1.14,1.14s-.57,1.14-1.14,1.14h-28.4c-3.69,0-8.24,1.14-11.93,1.14-2.27,0-3.98-.85-3.98-2.27s1.7-2.27,3.98-2.27ZM1034.5,94.61c3.69,0,8.24,1.14,11.93,1.14h27.83c.57,0,1.14.28,1.14,1.14s-.57,1.14-1.14,1.14h-27.83c-3.69,0-8.24,1.14-11.93,1.14-2.27,0-3.98-.85-3.98-2.27s1.7-2.27,3.98-2.27ZM1036.77,103.98c3.69,0,8.24,1.14,11.93,1.14h27.55c.57,0,1.14.28,1.14,1.14s-.57,1.14-1.14,1.14h-27.55c-3.69,0-8.24,1.14-11.93,1.14-2.27,0-3.98-.85-3.98-2.27s1.7-2.27,3.98-2.27ZM1039.05,113.36c3.69,0,8.24,1.14,11.93,1.14h26.98c.57,0,1.14.28,1.14,1.14s-.57,1.14-1.14,1.14h-26.98c-3.69,0-8.24,1.14-11.93,1.14-2.27,0-3.98-.85-3.98-2.27s1.7-2.27,3.98-2.27ZM1041.03,122.73c3.69,0,8.24,1.14,11.93,1.14h176.08c.57,0,1.14.28,1.14,1.14s-.57,1.14-1.14,1.14h-176.08c-3.69,0-8.24,1.14-11.93,1.14-2.27,0-3.98-.85-3.98-2.27s1.7-2.27,3.98-2.27ZM1043.31,132.1c3.69,0,8.24,1.14,11.93,1.14h67.59c.57,0,1.14.28,1.14,1.14s-.57,1.14-1.14,1.14h-67.59c-3.69,0-8.24,1.14-11.93,1.14-2.27,0-3.98-.85-3.98-2.27s1.7-2.27,3.98-2.27ZM1045.58,141.47c3.69,0,8.24,1.14,11.93,1.14h63.62c.57,0,1.14.28,1.14,1.14s-.57,1.14-1.14,1.14h-63.62c-3.69,0-8.24,1.14-11.93,1.14-2.27,0-3.98-.85-3.98-2.27s1.7-2.27,3.98-2.27ZM1047.85,150.84c3.69,0,8.24,1.14,11.93,1.14h59.36c.57,0,1.14.28,1.14,1.14s-.57,1.14-1.14,1.14h-59.36c-3.69,0-8.24,1.14-11.93,1.14-2.27,0-3.98-.85-3.98-2.27s1.7-2.27,3.98-2.27ZM1049.84,160.22c3.69,0,8.24,1.14,11.93,1.14h55.66c.57,0,1.14.28,1.14,1.14s-.57,1.14-1.14,1.14h-55.66c-3.69,0-8.24,1.14-11.93,1.14-2.27,0-3.98-.85-3.98-2.27s1.7-2.27,3.98-2.27ZM1052.11,169.59c3.69,0,8.24,1.14,11.93,1.14h51.4c.57,0,1.14.28,1.14,1.14s-.57,1.14-1.14,1.14h-51.4c-3.69,0-8.24,1.14-11.93,1.14-2.27,0-3.98-.85-3.98-2.27s1.7-2.27,3.98-2.27ZM1054.38,178.96c3.69,0,8.24,1.14,11.93,1.14h47.14c.57,0,1.14.28,1.14,1.14s-.57,1.14-1.14,1.14h-47.14c-3.69,0-8.24,1.14-11.93,1.14-2.27,0-3.98-.85-3.98-2.27s1.7-2.27,3.98-2.27ZM1056.65,188.33c3.69,0,8.24,1.14,11.93,1.14h43.17c.57,0,1.14.28,1.14,1.14s-.57,1.14-1.14,1.14h-43.17c-3.69,0-8.24,1.14-11.93,1.14-2.27,0-3.98-.85-3.98-2.27s1.7-2.27,3.98-2.27ZM1102.94,113.36c3.69,0,8.24,1.14,11.93,1.14h55.1c.57,0,1.14.28,1.14,1.14s-.57,1.14-1.14,1.14h-55.1c-3.69,0-8.24,1.14-11.93,1.14-2.27,0-3.98-.85-3.98-2.27s1.7-2.27,3.98-2.27ZM1104.65,103.98c3.69,0,8.24,1.14,11.93,1.14h51.12c.57,0,1.14.28,1.14,1.14s-.57,1.14-1.14,1.14h-51.12c-3.69,0-8.24,1.14-11.93,1.14-2.27,0-3.98-.85-3.98-2.27s1.7-2.27,3.98-2.27ZM1106.64,94.61c3.69,0,8.24,1.14,11.93,1.14h47.14c.57,0,1.14.28,1.14,1.14s-.57,1.14-1.14,1.14h-47.14c-3.69,0-8.24,1.14-11.93,1.14-2.27,0-3.98-.85-3.98-2.27s1.7-2.27,3.98-2.27ZM1108.34,85.24c3.69,0,8.24,1.14,11.93,1.14h43.74c.57,0,1.14.28,1.14,1.14s-.57,1.14-1.14,1.14h-43.74c-3.69,0-8.24,1.14-11.93,1.14-2.27,0-3.98-.85-3.98-2.27s1.7-2.27,3.98-2.27ZM1110.33,75.87c3.69,0,8.24,1.14,11.93,1.14h39.76c.57,0,1.14.28,1.14,1.14s-.57,1.14-1.14,1.14h-39.76c-3.69,0-8.24,1.14-11.93,1.14-2.27,0-3.98-.85-3.98-2.27s1.7-2.27,3.98-2.27ZM1112.32,66.5c3.69,0,8.24,1.14,11.93,1.14h36.07c.57,0,1.14.28,1.14,1.14s-.57,1.14-1.14,1.14h-36.07c-3.69,0-8.24,1.14-11.93,1.14-2.27,0-3.98-.85-3.98-2.27s1.7-2.27,3.98-2.27ZM1114.3,57.12c3.69,0,8.24,1.14,11.93,1.14h32.38c.57,0,1.14.28,1.14,1.14s-.57,1.14-1.14,1.14h-32.38c-3.69,0-8.24,1.14-11.93,1.14-2.27,0-3.98-.85-3.98-2.27s1.7-2.27,3.98-2.27ZM1147.25,132.1c3.69,0,8.24,1.14,11.93,1.14h67.31c.57,0,1.14.28,1.14,1.14s-.57,1.14-1.14,1.14h-67.31c-3.69,0-8.24,1.14-11.93,1.14-2.27,0-3.98-.85-3.98-2.27s1.7-2.27,3.98-2.27ZM1148.95,141.47c3.69,0,8.24,1.14,11.93,1.14h63.33c.57,0,1.14.28,1.14,1.14s-.57,1.14-1.14,1.14h-63.33c-3.69,0-8.24,1.14-11.93,1.14-2.27,0-3.98-.85-3.98-2.27s1.7-2.27,3.98-2.27ZM1150.94,150.84c3.69,0,8.24,1.14,11.93,1.14h59.07c.57,0,1.14.28,1.14,1.14s-.57,1.14-1.14,1.14h-59.07c-3.69,0-8.24,1.14-11.93,1.14-2.27,0-3.98-.85-3.98-2.27s1.7-2.27,3.98-2.27ZM1152.64,160.22c3.69,0,8.24,1.14,11.93,1.14h55.38c.57,0,1.14.28,1.14,1.14s-.57,1.14-1.14,1.14h-55.38c-3.69,0-8.24,1.14-11.93,1.14-2.27,0-3.98-.85-3.98-2.27s1.7-2.27,3.98-2.27ZM1154.63,169.59c3.69,0,8.24,1.14,11.93,1.14h51.12c.57,0,1.14.28,1.14,1.14s-.57,1.14-1.14,1.14h-51.12c-3.69,0-8.24,1.14-11.93,1.14-2.27,0-3.98-.85-3.98-2.27s1.7-2.27,3.98-2.27ZM1156.62,178.96c3.69,0,8.24,1.14,11.93,1.14h46.86c.57,0,1.14.28,1.14,1.14s-.57,1.14-1.14,1.14h-46.86c-3.69,0-8.24,1.14-11.93,1.14-2.27,0-3.98-.85-3.98-2.27s1.7-2.27,3.98-2.27ZM1158.32,188.33c3.69,0,8.24,1.14,11.93,1.14h42.88c.57,0,1.14.28,1.14,1.14s-.57,1.14-1.14,1.14h-42.88c-3.69,0-8.24,1.14-11.93,1.14-2.27,0-3.98-.85-3.98-2.27s1.7-2.27,3.98-2.27ZM1194.11,113.36c3.69,0,8.24,1.14,11.93,1.14h25.28c.57,0,1.14.28,1.14,1.14s-.57,1.14-1.14,1.14h-25.28c-3.69,0-8.24,1.14-11.93,1.14-2.27,0-3.98-.85-3.98-2.27s1.7-2.27,3.98-2.27ZM1195.81,103.98c3.69,0,8.24,1.14,11.93,1.14h25.84c.57,0,1.14.28,1.14,1.14s-.57,1.14-1.14,1.14h-25.84c-3.69,0-8.24,1.14-11.93,1.14-2.27,0-3.98-.85-3.98-2.27s1.7-2.27,3.98-2.27ZM1197.8,94.61c3.69,0,8.24,1.14,11.93,1.14h26.13c.57,0,1.14.28,1.14,1.14s-.57,1.14-1.14,1.14h-26.13c-3.69,0-8.24,1.14-11.93,1.14-2.27,0-3.98-.85-3.98-2.27s1.7-2.27,3.98-2.27ZM1199.5,85.24c3.69,0,8.24,1.14,11.93,1.14h26.7c.57,0,1.14.28,1.14,1.14s-.57,1.14-1.14,1.14h-26.7c-3.69,0-8.24,1.14-11.93,1.14-2.27,0-3.98-.85-3.98-2.27s1.7-2.27,3.98-2.27ZM1201.49,75.87c3.69,0,8.24,1.14,11.93,1.14h26.98c.57,0,1.14.28,1.14,1.14s-.57,1.14-1.14,1.14h-26.98c-3.69,0-8.24,1.14-11.93,1.14-2.27,0-3.98-.85-3.98-2.27s1.7-2.27,3.98-2.27ZM1203.2,66.5c3.69,0,8.24,1.14,11.93,1.14h27.55c.57,0,1.14.28,1.14,1.14s-.57,1.14-1.14,1.14h-27.55c-3.69,0-8.24,1.14-11.93,1.14-2.27,0-3.98-.85-3.98-2.27s1.7-2.27,3.98-2.27ZM1205.18,57.12c3.69,0,8.24,1.14,11.93,1.14h27.83c.57,0,1.14.28,1.14,1.14s-.57,1.14-1.14,1.14h-27.83c-3.69,0-8.24,1.14-11.93,1.14-2.27,0-3.98-.85-3.98-2.27s1.7-2.27,3.98-2.27Z"/>
  <path class="cls-1" d="M1254.32,188.33c3.69,0,8.24,1.14,11.93,1.14h33.23c.57,0,1.14.28,1.14,1.14s-.57,1.14-1.14,1.14h-33.23c-3.69,0-8.24,1.14-11.93,1.14-2.27,0-3.98-.85-3.98-2.27s1.7-2.27,3.98-2.27ZM1257.72,178.96c3.69,0,8.24,1.14,11.93,1.14h138.02c.57,0,1.14.28,1.14,1.14s-.57,1.14-1.14,1.14h-138.02c-3.69,0-8.24,1.14-11.93,1.14-2.27,0-3.98-.85-3.98-2.27s1.7-2.27,3.98-2.27ZM1260.85,169.59c3.69,0,8.24,1.14,11.93,1.14h131.49c.57,0,1.14.28,1.14,1.14s-.57,1.14-1.14,1.14h-131.49c-3.69,0-8.24,1.14-11.93,1.14-2.27,0-3.98-.85-3.98-2.27s1.7-2.27,3.98-2.27ZM1263.97,160.22c3.69,0,8.24,1.14,11.93,1.14h125.24c.57,0,1.14.28,1.14,1.14s-.57,1.14-1.14,1.14h-125.24c-3.69,0-8.24,1.14-11.93,1.14-2.27,0-3.98-.85-3.98-2.27s1.7-2.27,3.98-2.27ZM1267.1,150.84c3.69,0,8.24,1.14,11.93,1.14h119c.57,0,1.14.28,1.14,1.14s-.57,1.14-1.14,1.14h-119c-3.69,0-8.24,1.14-11.93,1.14-2.27,0-3.98-.85-3.98-2.27s1.7-2.27,3.98-2.27ZM1270.51,141.47c3.69,0,8.24,1.14,11.93,1.14h26.98c.57,0,1.14.28,1.14,1.14s-.57,1.14-1.14,1.14h-26.98c-3.69,0-8.24,1.14-11.93,1.14-2.27,0-3.98-.85-3.98-2.27s1.7-2.27,3.98-2.27ZM1273.63,132.1c3.69,0,8.24,1.14,11.93,1.14h26.13c.57,0,1.14.28,1.14,1.14s-.57,1.14-1.14,1.14h-26.13c-3.69,0-8.24,1.14-11.93,1.14-2.27,0-3.98-.85-3.98-2.27s1.7-2.27,3.98-2.27ZM1276.75,122.73c3.69,0,8.24,1.14,11.93,1.14h25.28c.57,0,1.14.28,1.14,1.14s-.57,1.14-1.14,1.14h-25.28c-3.69,0-8.24,1.14-11.93,1.14-2.27,0-3.98-.85-3.98-2.27s1.7-2.27,3.98-2.27ZM1279.88,113.36c3.69,0,8.24,1.14,11.93,1.14h24.14c.57,0,1.14.28,1.14,1.14s-.57,1.14-1.14,1.14h-24.14c-3.69,0-8.24,1.14-11.93,1.14-2.27,0-3.98-.85-3.98-2.27s1.7-2.27,3.98-2.27ZM1283,103.98c3.69,0,8.24,1.14,11.93,1.14h23.29c.57,0,1.14.28,1.14,1.14s-.57,1.14-1.14,1.14h-23.29c-3.69,0-8.24,1.14-11.93,1.14-2.27,0-3.98-.85-3.98-2.27s1.7-2.27,3.98-2.27ZM1286.13,94.61c3.69,0,8.24,1.14,11.93,1.14h80.94c.57,0,1.14.28,1.14,1.14s-.57,1.14-1.14,1.14h-80.94c-3.69,0-8.24,1.14-11.93,1.14-2.27,0-3.98-.85-3.98-2.27s1.7-2.27,3.98-2.27ZM1289.25,85.24c3.69,0,8.24,1.14,11.93,1.14h74.41c.57,0,1.14.28,1.14,1.14s-.57,1.14-1.14,1.14h-74.41c-3.69,0-8.24,1.14-11.93,1.14-2.27,0-3.98-.85-3.98-2.27s1.7-2.27,3.98-2.27ZM1292.66,75.87c3.69,0,8.24,1.14,11.93,1.14h67.88c.57,0,1.14.28,1.14,1.14s-.57,1.14-1.14,1.14h-67.88c-3.69,0-8.24,1.14-11.93,1.14-2.27,0-3.98-.85-3.98-2.27s1.7-2.27,3.98-2.27ZM1295.78,66.5c3.69,0,8.24,1.14,11.93,1.14h61.63c.57,0,1.14.28,1.14,1.14s-.57,1.14-1.14,1.14h-61.63c-3.69,0-8.24,1.14-11.93,1.14-2.27,0-3.98-.85-3.98-2.27s1.7-2.27,3.98-2.27ZM1298.9,57.12c3.69,0,8.24,1.14,11.93,1.14h55.38c.57,0,1.14.28,1.14,1.14s-.57,1.14-1.14,1.14h-55.38c-3.69,0-8.24,1.14-11.93,1.14-2.27,0-3.98-.85-3.98-2.27s1.7-2.27,3.98-2.27ZM1343.78,103.98c3.69,0,8.24,1.14,11.93,1.14h26.41c.57,0,1.14.28,1.14,1.14s-.57,1.14-1.14,1.14h-26.41c-3.69,0-8.24,1.14-11.93,1.14-2.27,0-3.98-.85-3.98-2.27s1.7-2.27,3.98-2.27ZM1346.05,113.36c3.69,0,8.24,1.14,11.93,1.14h27.26c.57,0,1.14.28,1.14,1.14s-.57,1.14-1.14,1.14h-27.26c-3.69,0-8.24,1.14-11.93,1.14-2.27,0-3.98-.85-3.98-2.27s1.7-2.27,3.98-2.27ZM1348.32,122.73c3.69,0,8.24,1.14,11.93,1.14h28.12c.57,0,1.14.28,1.14,1.14s-.57,1.14-1.14,1.14h-28.12c-3.69,0-8.24,1.14-11.93,1.14-2.27,0-3.98-.85-3.98-2.27s1.7-2.27,3.98-2.27ZM1350.59,132.1c3.69,0,8.24,1.14,11.93,1.14h28.97c.57,0,1.14.28,1.14,1.14s-.57,1.14-1.14,1.14h-28.97c-3.69,0-8.24,1.14-11.93,1.14-2.27,0-3.98-.85-3.98-2.27s1.7-2.27,3.98-2.27ZM1352.86,141.47c3.69,0,8.24,1.14,11.93,1.14h30.1c.57,0,1.14.28,1.14,1.14s-.57,1.14-1.14,1.14h-30.1c-3.69,0-8.24,1.14-11.93,1.14-2.27,0-3.98-.85-3.98-2.27s1.7-2.27,3.98-2.27ZM1362.52,188.33c3.69,0,8.24,1.14,11.93,1.14h36.07c.57,0,1.14.28,1.14,1.14s-.57,1.14-1.14,1.14h-36.07c-3.69,0-8.24,1.14-11.93,1.14-2.27,0-3.98-.85-3.98-2.27s1.7-2.27,3.98-2.27Z"/>
  <path class="cls-1" d="M1419.89,57.12c3.69,0,8.24,1.14,11.93,1.14h110.47c.57,0,1.14.28,1.14,1.14s-.57,1.14-1.14,1.14h-110.47c-3.69,0-8.24,1.14-11.93,1.14-2.27,0-3.98-.85-3.98-2.27s1.7-2.27,3.98-2.27ZM1419.89,66.5c3.69,0,8.24,1.14,11.93,1.14h110.47c.57,0,1.14.28,1.14,1.14s-.57,1.14-1.14,1.14h-110.47c-3.69,0-8.24,1.14-11.93,1.14-2.27,0-3.98-.85-3.98-2.27s1.7-2.27,3.98-2.27ZM1419.89,75.87c3.69,0,8.24,1.14,11.93,1.14h110.47c.57,0,1.14.28,1.14,1.14s-.57,1.14-1.14,1.14h-110.47c-3.69,0-8.24,1.14-11.93,1.14-2.27,0-3.98-.85-3.98-2.27s1.7-2.27,3.98-2.27ZM1419.89,85.24c3.69,0,8.24,1.14,11.93,1.14h110.47c.57,0,1.14.28,1.14,1.14s-.57,1.14-1.14,1.14h-110.47c-3.69,0-8.24,1.14-11.93,1.14-2.27,0-3.98-.85-3.98-2.27s1.7-2.27,3.98-2.27ZM1542.29,95.75c.57,0,1.14.28,1.14,1.14s-.57,1.14-1.14,1.14h-125.24c-.57,0-1.14-.28-1.14-1.14s.57-1.14,1.14-1.14h125.24ZM1457.09,103.98c3.69,0,8.24,1.14,11.93,1.14h36.07c.57,0,1.14.28,1.14,1.14s-.57,1.14-1.14,1.14h-36.07c-3.69,0-8.24,1.14-11.93,1.14-2.27,0-3.98-.85-3.98-2.27s1.7-2.27,3.98-2.27ZM1457.09,113.36c3.69,0,8.24,1.14,11.93,1.14h36.07c.57,0,1.14.28,1.14,1.14s-.57,1.14-1.14,1.14h-36.07c-3.69,0-8.24,1.14-11.93,1.14-2.27,0-3.98-.85-3.98-2.27s1.7-2.27,3.98-2.27ZM1457.09,122.73c3.69,0,8.24,1.14,11.93,1.14h36.07c.57,0,1.14.28,1.14,1.14s-.57,1.14-1.14,1.14h-36.07c-3.69,0-8.24,1.14-11.93,1.14-2.27,0-3.98-.85-3.98-2.27s1.7-2.27,3.98-2.27ZM1457.09,132.1c3.69,0,8.24,1.14,11.93,1.14h36.07c.57,0,1.14.28,1.14,1.14s-.57,1.14-1.14,1.14h-36.07c-3.69,0-8.24,1.14-11.93,1.14-2.27,0-3.98-.85-3.98-2.27s1.7-2.27,3.98-2.27ZM1457.09,141.47c3.69,0,8.24,1.14,11.93,1.14h36.07c.57,0,1.14.28,1.14,1.14s-.57,1.14-1.14,1.14h-36.07c-3.69,0-8.24,1.14-11.93,1.14-2.27,0-3.98-.85-3.98-2.27s1.7-2.27,3.98-2.27ZM1457.09,150.84c3.69,0,8.24,1.14,11.93,1.14h36.07c.57,0,1.14.28,1.14,1.14s-.57,1.14-1.14,1.14h-36.07c-3.69,0-8.24,1.14-11.93,1.14-2.27,0-3.98-.85-3.98-2.27s1.7-2.27,3.98-2.27ZM1457.09,160.22c3.69,0,8.24,1.14,11.93,1.14h36.07c.57,0,1.14.28,1.14,1.14s-.57,1.14-1.14,1.14h-36.07c-3.69,0-8.24,1.14-11.93,1.14-2.27,0-3.98-.85-3.98-2.27s1.7-2.27,3.98-2.27ZM1457.09,169.59c3.69,0,8.24,1.14,11.93,1.14h36.07c.57,0,1.14.28,1.14,1.14s-.57,1.14-1.14,1.14h-36.07c-3.69,0-8.24,1.14-11.93,1.14-2.27,0-3.98-.85-3.98-2.27s1.7-2.27,3.98-2.27ZM1457.09,178.96c3.69,0,8.24,1.14,11.93,1.14h36.07c.57,0,1.14.28,1.14,1.14s-.57,1.14-1.14,1.14h-36.07c-3.69,0-8.24,1.14-11.93,1.14-2.27,0-3.98-.85-3.98-2.27s1.7-2.27,3.98-2.27ZM1457.09,188.33c3.69,0,8.24,1.14,11.93,1.14h36.07c.57,0,1.14.28,1.14,1.14s-.57,1.14-1.14,1.14h-36.07c-3.69,0-8.24,1.14-11.93,1.14-2.27,0-3.98-.85-3.98-2.27s1.7-2.27,3.98-2.27Z"/>
  <path class="cls-1" d="M1568.14,122.73c3.69,0,8.24,1.14,11.93,1.14h37.49c.57,0,1.14.28,1.14,1.14s-.57,1.14-1.14,1.14h-37.49c-3.69,0-8.24,1.14-11.93,1.14-2.27,0-3.98-.85-3.98-2.27s1.7-2.27,3.98-2.27ZM1568.71,113.36c3.69,0,8.24,1.14,11.93,1.14h37.49c.57,0,1.14.28,1.14,1.14s-.57,1.14-1.14,1.14h-37.49c-3.69,0-8.24,1.14-11.93,1.14-2.27,0-3.98-.85-3.98-2.27s1.7-2.27,3.98-2.27ZM1568.71,132.1c3.69,0,8.24,1.14,11.93,1.14h37.49c.57,0,1.14.28,1.14,1.14s-.57,1.14-1.14,1.14h-37.49c-3.69,0-8.24,1.14-11.93,1.14-2.27,0-3.98-.85-3.98-2.27s1.7-2.27,3.98-2.27ZM1569.56,103.98c3.69,0,8.24,1.14,11.93,1.14h39.48c.57,0,1.14.28,1.14,1.14s-.57,1.14-1.14,1.14h-39.48c-3.69,0-8.24,1.14-11.93,1.14-2.27,0-3.98-.85-3.98-2.27s1.7-2.27,3.98-2.27ZM1569.56,141.47c3.69,0,8.24,1.14,11.93,1.14h39.48c.57,0,1.14.28,1.14,1.14s-.57,1.14-1.14,1.14h-39.48c-3.69,0-8.24,1.14-11.93,1.14-2.27,0-3.98-.85-3.98-2.27s1.7-2.27,3.98-2.27ZM1572.11,94.61c3.69,0,8.24,1.14,11.93,1.14h45.16c.57,0,1.14.28,1.14,1.14s-.57,1.14-1.14,1.14h-45.16c-3.69,0-8.24,1.14-11.93,1.14-2.27,0-3.98-.85-3.98-2.27s1.7-2.27,3.98-2.27ZM1572.11,150.84c3.69,0,8.24,1.14,11.93,1.14h45.16c.57,0,1.14.28,1.14,1.14s-.57,1.14-1.14,1.14h-45.16c-3.69,0-8.24,1.14-11.93,1.14-2.27,0-3.98-.85-3.98-2.27s1.7-2.27,3.98-2.27ZM1714.11,86.38c.57,0,1.14.28,1.14,1.14s-.57,1.14-1.14,1.14h-126.09c-3.69,0-8.24,1.14-11.93,1.14-2.27,0-3.98-.85-3.98-2.27s1.7-2.27,3.98-2.27c3.69,0,8.24,1.14,11.93,1.14h126.09ZM1714.11,161.35c.57,0,1.14.28,1.14,1.14s-.57,1.14-1.14,1.14h-126.09c-3.69,0-8.24,1.14-11.93,1.14-2.27,0-3.98-.85-3.98-2.27s1.7-2.27,3.98-2.27c3.69,0,8.24,1.14,11.93,1.14h126.09ZM1708.43,77c.57,0,1.14.28,1.14,1.14s-.57,1.14-1.14,1.14h-114.73c-3.69,0-8.24,1.14-11.93,1.14-2.27,0-3.98-.85-3.98-2.27s1.7-2.27,3.98-2.27c3.69,0,8.24,1.14,11.93,1.14h114.73ZM1708.43,170.72c.57,0,1.14.28,1.14,1.14s-.57,1.14-1.14,1.14h-114.73c-3.69,0-8.24,1.14-11.93,1.14-2.27,0-3.98-.85-3.98-2.27s1.7-2.27,3.98-2.27c3.69,0,8.24,1.14,11.93,1.14h114.73ZM1699.63,67.63c.57,0,1.14.28,1.14,1.14s-.57,1.14-1.14,1.14h-96.56c-3.69,0-8.24,1.14-11.93,1.14-2.27,0-3.98-.85-3.98-2.27s1.7-2.27,3.98-2.27c3.69,0,8.24,1.14,11.93,1.14h96.56ZM1699.63,180.1c.57,0,1.14.28,1.14,1.14s-.57,1.14-1.14,1.14h-96.56c-3.69,0-8.24,1.14-11.93,1.14-2.27,0-3.98-.85-3.98-2.27s1.7-2.27,3.98-2.27c3.69,0,8.24,1.14,11.93,1.14h96.56ZM1684.58,58.26c.57,0,1.14.28,1.14,1.14s-.57,1.14-1.14,1.14h-66.46c-3.69,0-8.24,1.14-11.93,1.14-2.27,0-3.98-.85-3.98-2.27s1.7-2.27,3.98-2.27c3.69,0,8.24,1.14,11.93,1.14h66.46ZM1618.12,191.74c-3.69,0-8.24,1.14-11.93,1.14-2.27,0-3.98-.85-3.98-2.27s1.7-2.27,3.98-2.27c3.69,0,8.24,1.14,11.93,1.14h66.46c.57,0,1.14.28,1.14,1.14s-.57,1.14-1.14,1.14h-66.46ZM1634.88,51.73c-.57,0-1.14-.28-1.14-1.14s.57-1.14,1.14-1.14h18.18c.57,0,1.14.28,1.14,1.14s-.57,1.14-1.14,1.14h-18.18ZM1653.05,198.27c.57,0,1.14.28,1.14,1.14s-.57,1.14-1.14,1.14h-18.18c-.57,0-1.14-.28-1.14-1.14s.57-1.14,1.14-1.14h18.18ZM1663.56,94.9c3.69,0,8.24,1.14,11.93,1.14h42.6c.57,0,1.14.28,1.14,1.14s-.57,1.14-1.14,1.14h-42.6c-3.69,0-8.24,1.14-11.93,1.14-2.27,0-3.98-.85-3.98-2.27s1.7-2.27,3.98-2.27ZM1663.56,150.56c3.69,0,8.24,1.14,11.93,1.14h42.6c.57,0,1.14.28,1.14,1.14s-.57,1.14-1.14,1.14h-42.6c-3.69,0-8.24,1.14-11.93,1.14-2.27,0-3.98-.85-3.98-2.27s1.7-2.27,3.98-2.27ZM1670.94,104.55c3.69,0,8.24,1.14,11.93,1.14h37.2c.57,0,1.14.28,1.14,1.14s-.57,1.14-1.14,1.14h-37.2c-3.69,0-8.24,1.14-11.93,1.14-2.27,0-3.98-.85-3.98-2.27s1.7-2.27,3.98-2.27ZM1670.94,140.9c3.69,0,8.24,1.14,11.93,1.14h37.2c.57,0,1.14.28,1.14,1.14s-.57,1.14-1.14,1.14h-37.2c-3.69,0-8.24,1.14-11.93,1.14-2.27,0-3.98-.85-3.98-2.27s1.7-2.27,3.98-2.27Z"/>
  <path class="cls-1" d="M1754.15,57.12c3.69,0,8.24,1.14,11.93,1.14h36.07c.57,0,1.14.28,1.14,1.14s-.57,1.14-1.14,1.14h-36.07c-3.69,0-8.24,1.14-11.93,1.14-2.27,0-3.98-.85-3.98-2.27s1.7-2.27,3.98-2.27ZM1754.15,66.5c3.69,0,8.24,1.14,11.93,1.14h36.07c.57,0,1.14.28,1.14,1.14s-.57,1.14-1.14,1.14h-36.07c-3.69,0-8.24,1.14-11.93,1.14-2.27,0-3.98-.85-3.98-2.27s1.7-2.27,3.98-2.27ZM1754.15,75.87c3.69,0,8.24,1.14,11.93,1.14h36.07c.57,0,1.14.28,1.14,1.14s-.57,1.14-1.14,1.14h-36.07c-3.69,0-8.24,1.14-11.93,1.14-2.27,0-3.98-.85-3.98-2.27s1.7-2.27,3.98-2.27ZM1754.15,85.24c3.69,0,8.24,1.14,11.93,1.14h36.07c.57,0,1.14.28,1.14,1.14s-.57,1.14-1.14,1.14h-36.07c-3.69,0-8.24,1.14-11.93,1.14-2.27,0-3.98-.85-3.98-2.27s1.7-2.27,3.98-2.27ZM1754.15,94.61c3.69,0,8.24,1.14,11.93,1.14h36.07c.57,0,1.14.28,1.14,1.14s-.57,1.14-1.14,1.14h-36.07c-3.69,0-8.24,1.14-11.93,1.14-2.27,0-3.98-.85-3.98-2.27s1.7-2.27,3.98-2.27ZM1754.15,103.98c3.69,0,8.24,1.14,11.93,1.14h136.32c.57,0,1.14.28,1.14,1.14s-.57,1.14-1.14,1.14h-136.32c-3.69,0-8.24,1.14-11.93,1.14-2.27,0-3.98-.85-3.98-2.27s1.7-2.27,3.98-2.27ZM1754.15,113.36c3.69,0,8.24,1.14,11.93,1.14h136.32c.57,0,1.14.28,1.14,1.14s-.57,1.14-1.14,1.14h-136.32c-3.69,0-8.24,1.14-11.93,1.14-2.27,0-3.98-.85-3.98-2.27s1.7-2.27,3.98-2.27ZM1754.15,122.73c3.69,0,8.24,1.14,11.93,1.14h136.32c.57,0,1.14.28,1.14,1.14s-.57,1.14-1.14,1.14h-136.32c-3.69,0-8.24,1.14-11.93,1.14-2.27,0-3.98-.85-3.98-2.27s1.7-2.27,3.98-2.27ZM1754.15,132.1c3.69,0,8.24,1.14,11.93,1.14h136.32c.57,0,1.14.28,1.14,1.14s-.57,1.14-1.14,1.14h-136.32c-3.69,0-8.24,1.14-11.93,1.14-2.27,0-3.98-.85-3.98-2.27s1.7-2.27,3.98-2.27ZM1754.15,141.47c3.69,0,8.24,1.14,11.93,1.14h136.32c.57,0,1.14.28,1.14,1.14s-.57,1.14-1.14,1.14h-136.32c-3.69,0-8.24,1.14-11.93,1.14-2.27,0-3.98-.85-3.98-2.27s1.7-2.27,3.98-2.27ZM1754.15,150.84c3.69,0,8.24,1.14,11.93,1.14h36.07c.57,0,1.14.28,1.14,1.14s-.57,1.14-1.14,1.14h-36.07c-3.69,0-8.24,1.14-11.93,1.14-2.27,0-3.98-.85-3.98-2.27s1.7-2.27,3.98-2.27ZM1754.15,160.22c3.69,0,8.24,1.14,11.93,1.14h36.07c.57,0,1.14.28,1.14,1.14s-.57,1.14-1.14,1.14h-36.07c-3.69,0-8.24,1.14-11.93,1.14-2.27,0-3.98-.85-3.98-2.27s1.7-2.27,3.98-2.27ZM1754.15,169.59c3.69,0,8.24,1.14,11.93,1.14h36.07c.57,0,1.14.28,1.14,1.14s-.57,1.14-1.14,1.14h-36.07c-3.69,0-8.24,1.14-11.93,1.14-2.27,0-3.98-.85-3.98-2.27s1.7-2.27,3.98-2.27ZM1754.15,178.96c3.69,0,8.24,1.14,11.93,1.14h36.07c.57,0,1.14.28,1.14,1.14s-.57,1.14-1.14,1.14h-36.07c-3.69,0-8.24,1.14-11.93,1.14-2.27,0-3.98-.85-3.98-2.27s1.7-2.27,3.98-2.27ZM1754.15,188.33c3.69,0,8.24,1.14,11.93,1.14h36.07c.57,0,1.14.28,1.14,1.14s-.57,1.14-1.14,1.14h-36.07c-3.69,0-8.24,1.14-11.93,1.14-2.27,0-3.98-.85-3.98-2.27s1.7-2.27,3.98-2.27ZM1854.41,57.12c3.69,0,8.24,1.14,11.93,1.14h36.07c.57,0,1.14.28,1.14,1.14s-.57,1.14-1.14,1.14h-36.07c-3.69,0-8.24,1.14-11.93,1.14-2.27,0-3.98-.85-3.98-2.27s1.7-2.27,3.98-2.27ZM1854.41,66.5c3.69,0,8.24,1.14,11.93,1.14h36.07c.57,0,1.14.28,1.14,1.14s-.57,1.14-1.14,1.14h-36.07c-3.69,0-8.24,1.14-11.93,1.14-2.27,0-3.98-.85-3.98-2.27s1.7-2.27,3.98-2.27ZM1854.41,75.87c3.69,0,8.24,1.14,11.93,1.14h36.07c.57,0,1.14.28,1.14,1.14s-.57,1.14-1.14,1.14h-36.07c-3.69,0-8.24,1.14-11.93,1.14-2.27,0-3.98-.85-3.98-2.27s1.7-2.27,3.98-2.27ZM1854.41,85.24c3.69,0,8.24,1.14,11.93,1.14h36.07c.57,0,1.14.28,1.14,1.14s-.57,1.14-1.14,1.14h-36.07c-3.69,0-8.24,1.14-11.93,1.14-2.27,0-3.98-.85-3.98-2.27s1.7-2.27,3.98-2.27ZM1854.41,94.61c3.69,0,8.24,1.14,11.93,1.14h36.07c.57,0,1.14.28,1.14,1.14s-.57,1.14-1.14,1.14h-36.07c-3.69,0-8.24,1.14-11.93,1.14-2.27,0-3.98-.85-3.98-2.27s1.7-2.27,3.98-2.27ZM1854.41,150.84c3.69,0,8.24,1.14,11.93,1.14h36.07c.57,0,1.14.28,1.14,1.14s-.57,1.14-1.14,1.14h-36.07c-3.69,0-8.24,1.14-11.93,1.14-2.27,0-3.98-.85-3.98-2.27s1.7-2.27,3.98-2.27ZM1854.41,160.22c3.69,0,8.24,1.14,11.93,1.14h36.07c.57,0,1.14.28,1.14,1.14s-.57,1.14-1.14,1.14h-36.07c-3.69,0-8.24,1.14-11.93,1.14-2.27,0-3.98-.85-3.98-2.27s1.7-2.27,3.98-2.27ZM1854.41,169.59c3.69,0,8.24,1.14,11.93,1.14h36.07c.57,0,1.14.28,1.14,1.14s-.57,1.14-1.14,1.14h-36.07c-3.69,0-8.24,1.14-11.93,1.14-2.27,0-3.98-.85-3.98-2.27s1.7-2.27,3.98-2.27ZM1854.41,178.96c3.69,0,8.24,1.14,11.93,1.14h36.07c.57,0,1.14.28,1.14,1.14s-.57,1.14-1.14,1.14h-36.07c-3.69,0-8.24,1.14-11.93,1.14-2.27,0-3.98-.85-3.98-2.27s1.7-2.27,3.98-2.27ZM1854.41,188.33c3.69,0,8.24,1.14,11.93,1.14h36.07c.57,0,1.14.28,1.14,1.14s-.57,1.14-1.14,1.14h-36.07c-3.69,0-8.24,1.14-11.93,1.14-2.27,0-3.98-.85-3.98-2.27s1.7-2.27,3.98-2.27Z"/>
</svg>